<svg xmlns="http://www.w3.org/2000/svg" width="1040" height="440" viewBox="0 0 1040 440">
<rect width="1040" height="440" fill="white"/>
<g font-family="Arial,sans-serif" fill="#24354b">
<text x="35" y="26" font-size="18">Observed precision-recall: no padded endpoint; AP unchanged</text>
<text x="65" y="50" font-size="15">global</text>
<path d="M 65.0 65 v 310 M 65 375.0 h 415" stroke="#e2e8f0" fill="none"/>
<text x="57.0" y="395" font-size="11">0.0</text>
<text x="35" y="379.0" font-size="11">0.0</text>
<path d="M 148.0 65 v 310 M 65 313.0 h 415" stroke="#e2e8f0" fill="none"/>
<text x="140.0" y="395" font-size="11">0.2</text>
<text x="35" y="317.0" font-size="11">0.2</text>
<path d="M 231.0 65 v 310 M 65 251.0 h 415" stroke="#e2e8f0" fill="none"/>
<text x="223.0" y="395" font-size="11">0.4</text>
<text x="35" y="255.0" font-size="11">0.4</text>
<path d="M 314.0 65 v 310 M 65 189.0 h 415" stroke="#e2e8f0" fill="none"/>
<text x="306.0" y="395" font-size="11">0.6</text>
<text x="35" y="193.0" font-size="11">0.6</text>
<path d="M 397.0 65 v 310 M 65 126.99999999999999 h 415" stroke="#e2e8f0" fill="none"/>
<text x="389.0" y="395" font-size="11">0.8</text>
<text x="35" y="131.0" font-size="11">0.8</text>
<path d="M 480.0 65 v 310 M 65 65.0 h 415" stroke="#e2e8f0" fill="none"/>
<text x="472.0" y="395" font-size="11">1.0</text>
<text x="35" y="69.0" font-size="11">1.0</text>
<polyline points="65.40,65.00 70.14,65.00 74.89,65.00 79.64,65.00 84.39,65.00 89.53,65.00 94.28,65.00 99.02,65.00 103.77,65.00 108.91,65.00 113.66,65.00 118.41,65.00 123.16,65.00 128.30,65.00 133.05,65.00 137.79,65.00 142.54,65.00 147.68,65.00 152.43,65.00 157.18,65.00 161.93,65.00 167.07,65.00 171.82,65.00 176.56,65.00 181.31,65.00 186.45,65.00 191.20,65.00 195.95,65.00 200.70,65.00 205.84,65.00 210.59,65.00 215.33,65.00 220.08,65.00 225.22,65.00 229.97,65.00 234.72,65.00 239.47,65.00 244.61,65.00 249.36,65.00 254.10,65.00 258.85,65.00 263.99,65.00 268.74,65.00 273.49,65.00 277.84,65.58 282.98,65.56 287.73,65.55 292.48,65.54 297.23,65.53 302.37,65.52 307.12,65.51 311.07,66.49 315.42,66.95 320.57,66.91 325.31,66.87 329.67,67.30 334.02,67.71 337.97,68.99 341.14,70.67 344.70,71.86 348.66,72.59 352.22,74.12 354.99,76.01 358.55,77.05 362.50,77.65 365.27,79.78 367.25,82.24 370.81,83.12 372.00,86.21 374.77,88.09 376.74,90.29 378.72,92.44 380.70,94.52 383.87,95.83 385.45,98.15 386.24,101.09 387.43,103.63 389.40,105.72 390.99,107.80 393.36,109.19 394.94,111.18 395.34,114.33 396.53,116.51 397.71,118.65 398.50,121.03 398.90,123.91 400.09,125.88 401.27,127.81 401.67,130.28 403.25,132.06 404.44,133.86 405.23,135.90 405.62,138.17 405.62,140.87 406.42,142.77 406.81,144.90 407.21,146.98 407.60,149.21 408.00,151.21 408.39,153.17 408.39,155.34 408.39,157.65 408.79,159.49 409.98,160.80 409.98,162.82 409.98,164.96 410.37,166.66 410.37,168.57 410.37,170.44 410.77,172.20 411.16,173.78 411.56,175.32 412.35,176.62 412.35,178.48 412.35,180.17 412.75,181.61 413.14,183.02 413.14,184.76 413.54,186.13 413.93,187.47 414.33,188.79 415.12,190.00 415.12,191.49 415.51,192.74 415.51,194.18 415.51,195.72 416.31,196.71 416.31,198.08 416.31,199.44 416.70,200.69 416.70,202.00 417.10,203.10 417.49,204.18 417.89,205.36 417.89,206.60 417.89,207.82 418.28,208.84 418.28,210.12 418.68,211.11 418.68,212.26 418.68,213.40 418.68,214.62 418.68,215.72 418.68,216.82 419.08,217.72 419.08,218.78 419.47,219.74 419.47,220.77 419.87,221.62 419.87,222.63 419.87,223.71 420.26,224.52 420.26,225.49 421.05,226.12 421.05,227.15 421.05,228.08 421.45,228.84 421.84,229.59 421.84,230.57 422.24,231.30 422.24,232.18 422.64,232.89 422.64,233.82 422.64,234.67 422.64,235.51 422.64,236.34 422.64,237.22 422.64,238.03 423.82,238.38 423.82,239.17 423.82,240.02 424.22,240.64 424.22,241.41 424.22,242.16 424.22,242.97 424.61,243.57 424.61,244.30 424.61,245.02 424.61,245.80 424.61,246.50 425.01,247.06 425.01,247.76 425.01,248.50 425.01,249.17 425.41,249.71 425.41,250.37 425.41,251.08 425.80,251.60 426.20,252.10 426.20,252.74 426.20,253.42 426.20,254.05 426.20,254.66 426.59,255.14 426.59,255.80 426.59,256.40 426.59,256.99 426.59,257.58 426.59,258.21 426.59,258.78 426.59,259.35 426.99,259.79 427.38,260.27 427.38,260.82 427.78,261.25 427.78,261.79 427.78,262.37 427.78,262.91 427.78,263.43 427.78,263.96 427.78,264.52 427.78,265.03 427.78,265.54 427.78,266.04 427.78,266.58 427.78,267.08 427.78,267.57 427.78,268.05 427.78,268.57 428.17,268.93 428.17,269.40 428.17,269.87 428.17,270.38 428.17,270.83 428.17,271.29 428.17,271.74 428.17,272.23 428.17,272.67 428.17,273.11 428.17,273.55 428.17,274.01 428.57,274.33 428.57,274.76 428.57,275.18 428.57,275.63 428.57,276.05 428.57,276.46 428.57,276.86 428.57,277.30 428.57,277.70 428.57,278.10 428.57,278.49 428.57,278.92 429.36,279.09 429.36,279.48 429.36,279.86 429.36,280.27 429.36,280.65 429.36,281.02 429.36,281.39 429.36,281.79 429.36,282.15 429.36,282.51 429.36,282.87 429.36,283.26 429.36,283.61 429.36,283.96 429.36,284.30 429.36,284.68 429.76,284.92 429.76,285.26 429.76,285.60 429.76,285.96 429.76,286.29 429.76,286.62 429.76,286.95 429.76,287.30 429.76,287.62 429.76,287.94 429.76,288.26 429.76,288.60 429.76,288.91 429.76,289.22 429.76,289.53 429.76,289.86 429.76,290.16 430.15,290.37 430.15,290.67 430.15,290.99 430.15,291.29 430.15,291.58 430.15,291.87 430.15,292.18 430.15,292.47 430.15,292.76 430.15,293.04 430.15,293.32 430.15,293.62 430.15,293.90 430.15,294.17 430.15,294.45 430.15,294.74 430.15,295.01 430.15,295.28 430.15,295.54 430.15,295.83 430.15,296.09 430.55,296.26 430.55,296.52 430.55,296.80 430.55,297.06 430.94,297.23 430.94,297.48 430.94,297.75 430.94,298.00 430.94,298.25 430.94,298.49 430.94,298.76 430.94,299.00 430.94,299.24 430.94,299.48 430.94,299.74 430.94,299.97 430.94,300.21 430.94,300.44 430.94,300.69 430.94,300.92 430.94,301.15 430.94,301.38 430.94,301.62 430.94,301.85 430.94,302.07 430.94,302.29 430.94,302.53 430.94,302.75 430.94,302.97 430.94,303.19 430.94,303.42 430.94,303.63 430.94,303.85 430.94,304.06 430.94,304.28 430.94,304.49 430.94,304.70 431.34,304.83 431.34,305.05 431.34,305.26 431.34,305.46 431.34,305.66 431.34,305.88 431.34,306.08 431.34,306.28 431.34,306.47 431.34,306.68 431.34,306.88 431.34,307.07 431.34,307.27 431.73,307.40 431.73,307.59 431.73,307.78 431.73,307.97 431.73,308.17 432.53,308.21 432.53,308.40 432.53,308.58 432.53,308.78 432.53,308.96 432.53,309.14 432.53,309.32 432.53,309.52 432.53,309.70 432.53,309.87 432.53,310.05 432.53,310.24 432.53,310.41 432.53,310.59 432.53,310.76 432.53,310.95 432.53,311.12 432.53,311.29 432.53,311.45 432.53,311.64 432.53,311.80 432.53,311.97 432.53,312.13 432.53,312.31 432.53,312.48 432.53,312.64 432.53,312.80 432.53,312.97 432.53,313.13 432.53,313.29 432.53,313.45 432.53,313.62 432.53,313.78 432.53,313.93 432.92,314.02 432.92,314.19 432.92,314.34 432.92,314.50 432.92,314.65 432.92,314.81 432.92,314.96 432.92,315.11 432.92,315.26 432.92,315.42 432.92,315.57 432.92,315.72 432.92,315.86 432.92,316.02 432.92,316.16 432.92,316.31 432.92,316.45 432.92,316.60 432.92,316.75 432.92,316.89 432.92,317.03 432.92,317.18 432.92,317.32 432.92,317.46 432.92,317.59 432.92,317.74 433.32,317.82 433.32,317.95 433.32,318.09 433.32,318.23 433.32,318.37 433.32,318.50 433.32,318.63 433.32,318.77 433.32,318.90 433.32,319.04 433.71,319.11 433.71,319.25 433.71,319.37 433.71,319.50 433.71,319.63 434.11,319.71 434.11,319.84 434.11,319.96 434.11,320.09 434.50,320.15 434.50,320.29 434.50,320.41 435.30,320.42 435.30,320.54 435.30,320.67 435.30,320.79 435.30,320.92 435.30,321.04 435.30,321.17 435.30,321.29 435.30,321.41 435.30,321.52 435.30,321.65 435.30,321.77 435.30,321.89 435.30,322.00 435.30,322.13 435.30,322.24 435.30,322.36 435.30,322.47 435.30,322.60 435.30,322.71 435.30,322.82 435.69,322.88 435.69,323.00 435.69,323.11 435.69,323.22 436.09,323.28 436.09,323.40 436.09,323.51 436.09,323.62 436.09,323.73 436.09,323.84 436.09,323.95 436.09,324.06 436.09,324.16 436.09,324.28 436.09,324.39 436.09,324.49 436.09,324.60 436.09,324.71 436.09,324.81 436.09,324.92 436.09,325.02 436.09,325.13 436.09,325.23 436.09,325.34 436.09,325.44 436.09,325.55 436.09,325.65 436.09,325.75 436.09,325.85 436.09,325.96 436.09,326.06 436.09,326.15 436.09,326.25 436.09,326.36 436.09,326.46 436.09,326.55 436.09,326.65 436.09,326.75 436.09,326.85 436.09,326.95 436.09,327.04 436.09,327.14 436.09,327.24 436.09,327.33 436.09,327.42 436.09,327.53 436.09,327.62 436.09,327.71 436.09,327.80 436.09,327.90 436.09,327.99 436.09,328.08 436.09,328.18 436.09,328.27 436.09,328.36 436.09,328.45 436.09,328.54 436.09,328.64 436.48,328.68 436.48,328.77 436.48,328.85 436.48,328.95 436.48,329.04 436.48,329.12 436.48,329.21 436.48,329.30 436.48,329.39 436.48,329.47 436.48,329.56 436.88,329.60 436.88,329.69 436.88,329.77 436.88,329.86 436.88,329.95 437.27,329.98 437.27,330.07 437.27,330.15 437.27,330.24 437.27,330.32 437.27,330.40 437.27,330.48 437.27,330.57 437.27,330.65 437.27,330.73 437.27,330.81 437.27,330.90 437.27,330.98 437.27,331.06 437.27,331.14 437.27,331.23 437.27,331.30 437.27,331.38 437.27,331.46 437.27,331.55 437.27,331.62 437.27,331.70 437.27,331.78 437.27,331.86 437.27,331.94 437.27,332.01 437.27,332.09 437.27,332.17 437.27,332.25 437.27,332.32 437.27,332.40 437.27,332.48 437.27,332.55 437.27,332.62 437.27,332.70 437.27,332.78 437.27,332.85 437.27,332.92 437.27,333.00 437.27,333.08 437.27,333.15 437.27,333.22 437.27,333.29 437.27,333.36 437.27,333.44 437.27,333.51 437.27,333.58 437.27,333.65 437.27,333.73 437.27,333.80 437.27,333.87 437.27,333.94 437.27,334.01 437.27,334.08 437.27,334.15 437.27,334.22 437.27,334.29 437.27,334.36 437.27,334.43 437.67,334.45 437.67,334.53 437.67,334.59 437.67,334.66 437.67,334.73 437.67,334.80 437.67,334.87 437.67,334.93 437.67,335.00 437.67,335.07 437.67,335.13 437.67,335.20 437.67,335.26 437.67,335.33 437.67,335.40 437.67,335.46 437.67,335.53 437.67,335.60 437.67,335.66 437.67,335.72 437.67,335.79 437.67,335.86 437.67,335.92 437.67,335.98 437.67,336.04 437.67,336.11 437.67,336.17 437.67,336.23 437.67,336.30 437.67,336.36 437.67,336.42 437.67,336.49 437.67,336.55 437.67,336.61 437.67,336.67 437.67,336.73 437.67,336.79 437.67,336.86 437.67,336.92 437.67,336.98 437.67,337.04 437.67,337.10 437.67,337.16 437.67,337.22 437.67,337.28 437.67,337.34 437.67,337.40 437.67,337.46 437.67,337.51 437.67,337.58 437.67,337.63 437.67,337.69 437.67,337.75 437.67,337.81 437.67,337.87 437.67,337.92 438.06,337.94 438.06,338.00 438.06,338.06 438.06,338.11 438.06,338.17 438.06,338.23 438.06,338.28 438.06,338.34 438.06,338.39 438.06,338.45 438.06,338.51 438.06,338.56 438.06,338.62 438.06,338.68 438.06,338.73 438.06,338.78 438.06,338.84 438.06,338.90 438.06,338.95 438.06,339.00 438.06,339.06 438.06,339.11 438.06,339.17 438.06,339.22 438.06,339.27 438.06,339.33 438.06,339.38 438.06,339.43 438.06,339.48 438.06,339.54 438.06,339.59 438.06,339.64 438.06,339.69 438.06,339.75 438.06,339.80 438.06,339.85 438.06,339.90 438.06,339.96 438.06,340.01 438.06,340.06 438.06,340.11 438.06,340.16 438.06,340.21 438.46,340.22 438.46,340.27 438.46,340.33 438.46,340.38 438.46,340.43 438.46,340.47 438.46,340.53 438.46,340.58 438.46,340.62 438.46,340.67 438.46,340.72 438.46,340.77 438.46,340.82 438.46,340.87 438.46,340.92 438.86,340.93 438.86,340.98 438.86,341.03 438.86,341.08 438.86,341.13 438.86,341.17 438.86,341.22 438.86,341.27 438.86,341.32 438.86,341.36 438.86,341.41 438.86,341.46 438.86,341.50 438.86,341.55 438.86,341.60 438.86,341.64 438.86,341.69 438.86,341.74 438.86,341.78 438.86,341.83 438.86,341.88 438.86,341.92 438.86,341.97 438.86,342.01 438.86,342.06 438.86,342.10 438.86,342.15 438.86,342.19 438.86,342.24 438.86,342.28 438.86,342.33 438.86,342.37 438.86,342.42 438.86,342.46 438.86,342.50 438.86,342.55 438.86,342.59 439.25,342.60 439.25,342.65 439.25,342.69 439.25,342.73 439.25,342.78 439.25,342.82 439.25,342.86 439.25,342.91 439.25,342.95 439.25,342.99 439.25,343.03 439.25,343.08 439.25,343.12 439.25,343.16 439.25,343.20 439.25,343.25 439.25,343.29 439.25,343.33 439.25,343.37 439.25,343.42 439.25,343.46 439.25,343.50 439.25,343.54 439.25,343.58 439.25,343.62 439.25,343.66 439.25,343.70 439.25,343.75 439.25,343.79 439.25,343.83 439.25,343.87 439.25,343.91 439.25,343.95 439.25,343.99 439.25,344.03 439.25,344.07 439.25,344.11 439.25,344.15 439.25,344.19 439.25,344.23 439.25,344.27 439.25,344.31 439.25,344.34 439.25,344.39 439.25,344.42 439.25,344.46 439.25,344.50 439.25,344.54 439.25,344.58 439.25,344.62 439.25,344.65 439.25,344.70 439.25,344.73 439.25,344.77 439.25,344.81 439.25,344.85 439.25,344.88 439.25,344.92 439.25,344.96 439.25,345.00 439.25,345.04 439.25,345.07 439.25,345.11 439.25,345.15 439.25,345.19 439.25,345.22 439.25,345.26 439.25,345.30 439.25,345.33 439.25,345.37 439.25,345.40 439.65,345.41 439.65,345.45 439.65,345.48 439.65,345.52 439.65,345.56 439.65,345.59 440.04,345.60 440.04,345.63 440.04,345.67 440.04,345.71 440.04,345.74 440.04,345.78 440.04,345.81 440.04,345.85 440.04,345.88 440.04,345.92 440.04,345.95 440.04,345.99 440.04,346.02 440.04,346.06 440.04,346.09 440.04,346.13 440.04,346.16 440.04,346.20 440.04,346.23 440.04,346.27 440.04,346.30 440.04,346.33 440.04,346.37 440.04,346.40 440.04,346.44 440.04,346.47 440.04,346.51 440.04,346.54 440.44,346.54 440.44,346.58 440.44,346.61 440.44,346.64 440.44,346.68 440.44,346.71 440.44,346.75 440.44,346.78 440.44,346.81 440.44,346.84 440.44,346.88 440.44,346.91 440.44,346.94 440.44,346.97 440.44,347.01 440.44,347.04 440.44,347.07 440.44,347.10 440.44,347.14 440.44,347.17 440.44,347.20 440.44,347.23 440.44,347.26 440.44,347.30 440.44,347.33 440.44,347.36 440.44,347.39 440.44,347.43 440.44,347.46 440.44,347.49 440.44,347.52 440.44,347.55 440.44,347.58 440.44,347.61 440.44,347.64 440.83,347.65 440.83,347.68 441.23,347.68 441.23,347.71 441.23,347.74 441.23,347.77 441.23,347.80 441.23,347.83 441.23,347.87 441.23,347.90 441.23,347.93 441.23,347.96 441.23,347.99 441.23,348.02 441.23,348.05 441.23,348.08 441.23,348.11 441.23,348.14 441.23,348.17 441.23,348.20 441.23,348.23 441.23,348.26 441.23,348.29 441.23,348.32 441.23,348.35 441.23,348.38 441.23,348.40 441.63,348.41 441.63,348.44 441.63,348.47 441.63,348.49 441.63,348.52 441.63,348.55 441.63,348.58 441.63,348.61 441.63,348.64 441.63,348.67 441.63,348.70 441.63,348.73 441.63,348.76 441.63,348.79 441.63,348.81 441.63,348.84 441.63,348.87 441.63,348.90 441.63,348.93 441.63,348.95 441.63,348.98 441.63,349.01 441.63,349.04 441.63,349.07 441.63,349.09 441.63,349.12 441.63,349.15 441.63,349.18 441.63,349.21 441.63,349.23 441.63,349.26 441.63,349.29 441.63,349.32 441.63,349.34 441.63,349.37 441.63,349.40 441.63,349.42 441.63,349.45 441.63,349.48 441.63,349.51 441.63,349.53 441.63,349.56 441.63,349.59 441.63,349.61 441.63,349.64 441.63,349.67 441.63,349.69 441.63,349.72 441.63,349.75 441.63,349.77 441.63,349.80 441.63,349.83 441.63,349.85 441.63,349.88 441.63,349.90 441.63,349.93 441.63,349.96 441.63,349.98 441.63,350.01 441.63,350.03 441.63,350.06 441.63,350.09 441.63,350.11 441.63,350.14 441.63,350.16 441.63,350.19 441.63,350.21 441.63,350.24 441.63,350.26 441.63,350.29 441.63,350.32 441.63,350.34 441.63,350.37 441.63,350.39 441.63,350.42 441.63,350.44 441.63,350.47 441.63,350.49 441.63,350.52 441.63,350.54 441.63,350.57 441.63,350.59 441.63,350.62 441.63,350.64 441.63,350.66 441.63,350.69 441.63,350.71 441.63,350.74 441.63,350.76 441.63,350.79 441.63,350.81 441.63,350.84 441.63,350.86 441.63,350.88" fill="none" stroke="#176a9b" stroke-width="1.2"/>
<text x="73" y="363" font-size="12">class 0; Rmax=0.9075</text>
<text x="195" y="420" font-size="13">Recall (not confidence)</text>
<text x="575" y="50" font-size="15">trustedmask</text>
<path d="M 575.0 65 v 310 M 575 375.0 h 415" stroke="#e2e8f0" fill="none"/>
<text x="567.0" y="395" font-size="11">0.0</text>
<text x="545" y="379.0" font-size="11">0.0</text>
<path d="M 658.0 65 v 310 M 575 313.0 h 415" stroke="#e2e8f0" fill="none"/>
<text x="650.0" y="395" font-size="11">0.2</text>
<text x="545" y="317.0" font-size="11">0.2</text>
<path d="M 741.0 65 v 310 M 575 251.0 h 415" stroke="#e2e8f0" fill="none"/>
<text x="733.0" y="395" font-size="11">0.4</text>
<text x="545" y="255.0" font-size="11">0.4</text>
<path d="M 824.0 65 v 310 M 575 189.0 h 415" stroke="#e2e8f0" fill="none"/>
<text x="816.0" y="395" font-size="11">0.6</text>
<text x="545" y="193.0" font-size="11">0.6</text>
<path d="M 907.0 65 v 310 M 575 126.99999999999999 h 415" stroke="#e2e8f0" fill="none"/>
<text x="899.0" y="395" font-size="11">0.8</text>
<text x="545" y="131.0" font-size="11">0.8</text>
<path d="M 990.0 65 v 310 M 575 65.0 h 415" stroke="#e2e8f0" fill="none"/>
<text x="982.0" y="395" font-size="11">1.0</text>
<text x="545" y="69.0" font-size="11">1.0</text>
<polyline points="575.40,65.00 587.66,65.00 599.92,65.00 612.19,65.00 624.45,65.00 637.11,65.00 649.38,65.00 661.64,65.00 673.90,65.00 686.56,65.00 698.83,65.00 711.09,65.00 723.36,65.00 735.62,65.00 748.28,65.00 760.54,65.00 772.81,65.00 784.28,66.17 796.54,66.65 808.41,67.09 820.28,67.48 831.36,68.78 842.83,69.96 853.51,71.47 862.61,74.51 872.50,76.51 880.81,79.89 888.33,84.10 895.45,88.03 901.78,92.37 907.32,97.09 912.86,101.79 916.81,107.16 920.37,112.51 923.54,117.83 927.10,122.81 930.26,127.55 933.03,132.31 934.22,137.86 936.59,142.37 937.38,147.83 937.78,153.09 939.36,157.39 940.94,161.49 942.53,165.55 943.32,169.73 944.11,173.73 945.30,177.34 946.48,180.94 947.27,184.46 947.67,188.05 948.46,191.30 948.46,194.80 949.65,197.72 949.65,200.98 950.44,203.76 950.44,206.80 950.83,209.64 950.83,212.47 951.23,215.04 951.23,217.68 952.02,220.00 953.21,222.00 953.60,224.25 953.60,226.59 954.00,228.70 954.39,230.82 954.79,232.81 954.79,234.89 955.19,236.76 955.19,238.78 956.37,240.27 956.37,242.12 956.37,243.93 956.77,245.61 956.77,247.32 956.77,248.99 957.56,250.36 957.96,251.81 957.96,253.41 957.96,254.92 957.96,256.39 957.96,257.83 957.96,259.27 957.96,260.64 957.96,261.98 958.35,263.16 958.35,264.48 958.75,265.61 958.75,266.83 959.54,267.81 959.93,268.87 959.93,270.05 959.93,271.17 959.93,272.26 960.33,273.23 960.33,274.32 960.33,275.35 960.33,276.36 960.33,277.35 960.72,278.25 960.72,279.20 960.72,280.13 961.12,280.95 961.12,281.85 961.12,282.76 961.12,283.62 961.12,284.47 961.12,285.30 961.12,286.14 961.12,286.94 961.12,287.73 961.12,288.50 961.52,289.20 961.91,289.86 961.91,290.60 961.91,291.32 961.91,292.03 962.70,292.58 962.70,293.27 962.70,293.94 962.70,294.61 962.70,295.28 962.70,295.93 963.10,296.48 963.49,297.02 963.49,297.66 963.49,298.26 963.49,298.86 963.49,299.44 963.49,300.02 963.49,300.61 963.49,301.17 963.49,301.72 963.49,302.26 963.49,302.81 963.49,303.34 963.49,303.86 963.49,304.37 963.89,304.82 963.89,305.32 963.89,305.81 963.89,306.29 963.89,306.77 963.89,307.25 963.89,307.72 963.89,308.17 963.89,308.62 963.89,309.08 963.89,309.52 963.89,309.96 963.89,310.38 963.89,310.81 963.89,311.24 963.89,311.65 963.89,312.05 963.89,312.45 964.29,312.80 964.68,313.13 964.68,313.51 964.68,313.89 964.68,314.28 964.68,314.65 964.68,315.02 964.68,315.38 964.68,315.74 964.68,316.11 964.68,316.46 964.68,316.80 964.68,317.15 964.68,317.50 964.68,317.83 964.68,318.16 964.68,318.49 964.68,318.82 965.08,319.08 965.87,319.28 965.87,319.59 965.87,319.90 965.87,320.22 965.87,320.52 965.87,320.82 965.87,321.12 965.87,321.42 965.87,321.71 965.87,321.99 965.87,322.27 966.26,322.51 966.26,322.79 966.26,323.06 966.26,323.33 966.66,323.55 966.66,323.82 966.66,324.09 966.66,324.35 966.66,324.61 966.66,324.87 966.66,325.12 966.66,325.37 967.05,325.57 967.05,325.82 967.05,326.07 967.05,326.31 967.05,326.54 967.45,326.73 967.45,326.97 967.45,327.20 967.45,327.43 967.45,327.66 967.45,327.89 967.45,328.11 967.45,328.34 967.45,328.55 967.45,328.78 967.45,328.99 967.45,329.20 967.45,329.41 967.45,329.62 967.85,329.79 967.85,330.00 967.85,330.20 967.85,330.40 967.85,330.61 967.85,330.80 967.85,331.00 967.85,331.19 967.85,331.39 967.85,331.58 967.85,331.77 967.85,331.96 967.85,332.14 967.85,332.33 967.85,332.52 967.85,332.70 967.85,332.88 968.24,333.02 968.24,333.20 968.24,333.37 968.24,333.54 968.24,333.72 968.24,333.89 968.24,334.06 968.64,334.19 968.64,334.36 968.64,334.53 968.64,334.69 968.64,334.85 968.64,335.01 968.64,335.18 968.64,335.34 968.64,335.50 968.64,335.65 969.03,335.77 969.03,335.93 969.03,336.08 969.03,336.23 969.03,336.38 969.03,336.53 969.03,336.68 969.03,336.83 969.03,336.98 969.03,337.12 969.03,337.27 969.43,337.37 969.43,337.51 969.43,337.66 969.43,337.80 969.43,337.94 969.43,338.07 969.43,338.21 969.43,338.35 969.43,338.48 969.43,338.62 969.43,338.75 969.43,338.89 969.43,339.02 969.43,339.15 969.43,339.27 969.43,339.41 969.43,339.53 969.43,339.66 969.43,339.78 969.43,339.91 969.43,340.03 969.43,340.16 969.43,340.28 969.43,340.40 969.43,340.52 969.43,340.64 969.43,340.76 969.43,340.88 969.82,340.96 969.82,341.08 969.82,341.19 969.82,341.31 969.82,341.42 969.82,341.54 969.82,341.65 969.82,341.76 970.22,341.84 970.22,341.95 970.22,342.06 970.22,342.17 970.22,342.27 970.22,342.38 970.22,342.49 970.22,342.60 970.22,342.70 970.22,342.80 970.22,342.91 970.22,343.01 970.61,343.08 970.61,343.19 970.61,343.29 970.61,343.39 970.61,343.49 970.61,343.59 970.61,343.69 970.61,343.79 970.61,343.88 970.61,343.98 970.61,344.08 970.61,344.18 970.61,344.27 970.61,344.36 970.61,344.46 970.61,344.55 970.61,344.65 970.61,344.74 970.61,344.83 970.61,344.92 970.61,345.01 970.61,345.10 970.61,345.19 970.61,345.28 970.61,345.37 970.61,345.46 970.61,345.55 970.61,345.63 970.61,345.72 970.61,345.81 970.61,345.89 970.61,345.98 970.61,346.06 970.61,346.15 970.61,346.23 970.61,346.31 970.61,346.39 970.61,346.48 970.61,346.56 970.61,346.64 970.61,346.72 970.61,346.81 970.61,346.88 970.61,346.96 970.61,347.04 970.61,347.12 970.61,347.20 970.61,347.28 970.61,347.35 970.61,347.43 970.61,347.51 970.61,347.58 970.61,347.66 970.61,347.73 970.61,347.81 970.61,347.88 970.61,347.96 970.61,348.03 970.61,348.10 970.61,348.18 970.61,348.25 970.61,348.32 970.61,348.39 970.61,348.46 970.61,348.53 970.61,348.60 970.61,348.67 970.61,348.74 970.61,348.81 970.61,348.88 970.61,348.95 971.01,348.99 971.01,349.06 971.01,349.13 971.41,349.17 971.41,349.24 971.41,349.30 971.41,349.37 971.41,349.43 971.41,349.50 971.41,349.57 971.41,349.63 971.41,349.69 971.41,349.76 971.41,349.82 971.41,349.89 971.41,349.95 971.41,350.01 971.41,350.07 971.41,350.14 971.41,350.20 971.41,350.26 971.41,350.32 971.41,350.38 971.41,350.45 971.41,350.51 971.41,350.56 971.41,350.62 971.41,350.69 971.41,350.74 971.41,350.80 971.41,350.86 971.41,350.92 971.41,350.98 971.41,351.04 971.41,351.09 971.41,351.15 971.41,351.21 971.41,351.26 971.41,351.32 971.41,351.38 971.41,351.43 971.41,351.49 971.41,351.54 971.41,351.60 971.41,351.66 971.41,351.71 971.41,351.76 971.41,351.82 971.41,351.87 971.41,351.93 971.41,351.98 971.41,352.03 971.41,352.08 971.41,352.14 971.41,352.19 971.41,352.24 971.41,352.29 971.41,352.35 971.41,352.40 971.41,352.45 971.41,352.50 971.41,352.55 971.41,352.60 971.41,352.65 971.41,352.70 971.41,352.75 971.41,352.80 971.41,352.85 971.41,352.90 971.41,352.95 971.41,353.00 971.41,353.05 971.41,353.09 971.41,353.14 971.41,353.19 971.41,353.24 971.41,353.29 971.41,353.33 971.41,353.38 971.41,353.43 971.41,353.47 971.41,353.52 971.41,353.57 971.41,353.61 971.41,353.66 971.41,353.70 971.41,353.75 971.41,353.79 971.41,353.84 971.41,353.89 971.41,353.93 971.41,353.97 971.41,354.02 971.41,354.06 971.41,354.11 971.41,354.15 971.41,354.19 971.41,354.24 971.41,354.28 971.41,354.32 971.41,354.37 971.41,354.41 971.41,354.45 971.41,354.49 971.41,354.54 971.41,354.58 971.41,354.62 971.41,354.66 971.41,354.70 971.41,354.75 971.41,354.79 971.41,354.83 971.41,354.87 971.41,354.91 971.41,354.95 971.41,354.99 971.41,355.03 971.41,355.07 971.41,355.11 971.41,355.15 971.41,355.19 971.41,355.23 971.41,355.27 971.41,355.31 971.41,355.35 971.41,355.39 971.41,355.42 971.41,355.46 971.41,355.50 971.41,355.54 971.41,355.58 971.41,355.62 971.41,355.65 971.41,355.69 971.80,355.71 971.80,355.75 971.80,355.78 971.80,355.82 971.80,355.86 971.80,355.89 971.80,355.93 971.80,355.97 971.80,356.00 971.80,356.04 971.80,356.08 971.80,356.11 971.80,356.15 971.80,356.18 971.80,356.22 971.80,356.25 971.80,356.29 971.80,356.32 971.80,356.36 971.80,356.39 971.80,356.43 971.80,356.46 971.80,356.50 971.80,356.53 971.80,356.57 971.80,356.60 971.80,356.63 971.80,356.67 971.80,356.70 971.80,356.73 971.80,356.77 971.80,356.80 971.80,356.84 971.80,356.87 971.80,356.90 971.80,356.93 971.80,356.97 971.80,357.00 971.80,357.03 971.80,357.06 971.80,357.10 971.80,357.13 971.80,357.16 971.80,357.19 971.80,357.22 971.80,357.26 971.80,357.29 971.80,357.32 971.80,357.35 971.80,357.38 971.80,357.41 971.80,357.44 971.80,357.47 971.80,357.51 971.80,357.54 971.80,357.57 971.80,357.60 971.80,357.63 971.80,357.66 971.80,357.69 971.80,357.72 971.80,357.75 971.80,357.78 971.80,357.81 971.80,357.84 971.80,357.87 971.80,357.90 971.80,357.93 971.80,357.95 971.80,357.98 971.80,358.01 971.80,358.04 971.80,358.07 971.80,358.10 971.80,358.13 971.80,358.16 971.80,358.18 971.80,358.21 971.80,358.24 971.80,358.27 971.80,358.30 971.80,358.33 971.80,358.35 971.80,358.38 971.80,358.41 971.80,358.44 971.80,358.46 971.80,358.49 972.20,358.50 972.20,358.53 972.20,358.56 972.20,358.58 972.20,358.61 972.20,358.64 972.20,358.66 972.20,358.69 972.20,358.72 972.20,358.74 972.20,358.77 972.20,358.80 972.20,358.82 972.20,358.85 972.20,358.88 972.20,358.90 972.20,358.93 972.20,358.95 972.20,358.98 972.20,359.01 972.20,359.03 972.20,359.06 972.20,359.08 972.20,359.11 972.20,359.13 972.20,359.16 972.20,359.18 972.20,359.21 972.20,359.23 972.20,359.26 972.20,359.28 972.20,359.31 972.20,359.33 972.20,359.36 972.20,359.38 972.20,359.41 972.20,359.43 972.20,359.45 972.20,359.48 972.20,359.50 972.20,359.53 972.20,359.55 972.20,359.57 972.20,359.60 972.20,359.62 972.20,359.65 972.20,359.67 972.20,359.69 972.20,359.72 972.20,359.74 972.20,359.76 972.20,359.79 972.20,359.81 972.20,359.83 972.20,359.86 972.20,359.88 972.20,359.90 972.20,359.93 972.20,359.95 972.20,359.97 972.20,359.99 972.20,360.02 972.20,360.04 972.20,360.06 972.20,360.08 972.20,360.11 972.20,360.13 972.20,360.15 972.20,360.17 972.20,360.19 972.20,360.22 972.20,360.24 972.20,360.26 972.20,360.28 972.20,360.30 972.20,360.33 972.20,360.35 972.20,360.37 972.20,360.39 972.20,360.41 972.20,360.43 972.20,360.45 972.20,360.47 972.20,360.50 972.20,360.52 972.20,360.54 972.20,360.56 972.20,360.58 972.20,360.60 972.20,360.62 972.20,360.64 972.20,360.66 972.20,360.68 972.20,360.70 972.20,360.72 972.20,360.75 972.20,360.77 972.20,360.79 972.20,360.81 972.20,360.83 972.20,360.85 972.20,360.87 972.20,360.89 972.20,360.91 972.20,360.93 972.20,360.95 972.20,360.97 972.20,360.99 972.20,361.01 972.20,361.03 972.20,361.04 972.20,361.06 972.20,361.08 972.20,361.10 972.20,361.12 972.20,361.14 972.20,361.16 972.20,361.18 972.20,361.20 972.20,361.22 972.20,361.24 972.20,361.26 972.20,361.28 972.20,361.29 972.20,361.31 972.20,361.33 972.20,361.35 972.20,361.37 972.20,361.39 972.20,361.41 972.20,361.42 972.20,361.44 972.20,361.46 972.20,361.48 972.20,361.50 972.20,361.52 972.20,361.54 972.20,361.55 972.20,361.57 972.20,361.59 972.20,361.61 972.20,361.63 972.20,361.64 972.20,361.66 972.20,361.68 972.20,361.70 972.20,361.71 972.20,361.73 972.20,361.75 972.20,361.77 972.20,361.78 972.20,361.80 972.20,361.82 972.20,361.84 972.20,361.85 972.20,361.87 972.20,361.89 972.20,361.91 972.20,361.92 972.20,361.94 972.20,361.96 972.20,361.98 972.20,361.99 972.20,362.01 972.20,362.03 972.20,362.04 972.20,362.06 972.20,362.08 972.20,362.09 972.20,362.11 972.20,362.13 972.20,362.14 972.20,362.16 972.20,362.18 972.20,362.19 972.20,362.21 972.20,362.23 972.20,362.24 972.20,362.26 972.20,362.27 972.20,362.29 972.20,362.31 972.20,362.32 972.59,362.33 972.59,362.34 972.59,362.36 972.59,362.37 972.59,362.39 972.59,362.41 972.59,362.42 972.59,362.44 972.59,362.45 972.59,362.47 972.59,362.49 972.59,362.50 972.59,362.52 972.59,362.53 972.59,362.55 972.59,362.56 972.59,362.58 972.59,362.60 972.59,362.61 972.59,362.63 972.59,362.64 972.59,362.66 972.59,362.67 972.59,362.69 972.59,362.70 972.59,362.72 972.59,362.73 972.59,362.75 972.59,362.76 972.59,362.78 972.59,362.79 972.59,362.81 972.59,362.82 972.59,362.84 972.59,362.85 972.59,362.87 972.59,362.88 972.99,362.88 972.99,362.90 972.99,362.91 972.99,362.93 972.99,362.94 972.99,362.96 972.99,362.97 972.99,362.99 972.99,363.00 972.99,363.01 972.99,363.03 972.99,363.04 972.99,363.06 972.99,363.07 972.99,363.09 972.99,363.10 972.99,363.11 972.99,363.13 972.99,363.14 972.99,363.16 972.99,363.17 972.99,363.18 972.99,363.20 972.99,363.21 972.99,363.23 972.99,363.24 972.99,363.25 972.99,363.27 972.99,363.28 972.99,363.30 972.99,363.31 972.99,363.32 972.99,363.34 972.99,363.35 972.99,363.36 972.99,363.38 972.99,363.39 972.99,363.40 972.99,363.42 972.99,363.43 972.99,363.44 972.99,363.46 972.99,363.47 972.99,363.49 972.99,363.50 972.99,363.51 972.99,363.52 972.99,363.54 972.99,363.55 972.99,363.56 972.99,363.58 972.99,363.59 972.99,363.60 972.99,363.62 972.99,363.63 972.99,363.64 972.99,363.66 972.99,363.67 972.99,363.68 972.99,363.69 972.99,363.71 972.99,363.72 972.99,363.73 972.99,363.74 972.99,363.76 972.99,363.77 972.99,363.78 972.99,363.80 972.99,363.81 972.99,363.82 972.99,363.83 972.99,363.85 972.99,363.86 972.99,363.87 972.99,363.88 972.99,363.89 972.99,363.91 972.99,363.92 972.99,363.93 972.99,363.94 972.99,363.96 972.99,363.97 972.99,363.98 972.99,363.99 972.99,364.01 972.99,364.02 972.99,364.03 972.99,364.04 972.99,364.05 972.99,364.07 972.99,364.08 972.99,364.09 972.99,364.10 972.99,364.11 972.99,364.12 972.99,364.14 972.99,364.15 972.99,364.16 972.99,364.17 972.99,364.18 972.99,364.20 972.99,364.21 972.99,364.22 972.99,364.23 972.99,364.24 972.99,364.25 972.99,364.27 972.99,364.28 972.99,364.29 972.99,364.30 972.99,364.31 972.99,364.32 972.99,364.33 972.99,364.35 972.99,364.36 972.99,364.37 972.99,364.38 972.99,364.39 972.99,364.40 972.99,364.41 972.99,364.42 972.99,364.44 972.99,364.45 972.99,364.46 972.99,364.47 972.99,364.48 972.99,364.49 972.99,364.50 972.99,364.51 972.99,364.52 972.99,364.53 972.99,364.55 972.99,364.56 972.99,364.57 972.99,364.58 972.99,364.59 972.99,364.60 972.99,364.61 972.99,364.62 972.99,364.63 972.99,364.64 972.99,364.65 972.99,364.67 972.99,364.68 972.99,364.69 972.99,364.70 972.99,364.71 972.99,364.72 972.99,364.73 972.99,364.74 972.99,364.75 972.99,364.76 972.99,364.77 972.99,364.78 972.99,364.79 972.99,364.80 972.99,364.81 972.99,364.82 972.99,364.83 972.99,364.84 972.99,364.85 972.99,364.86 972.99,364.88 972.99,364.89 972.99,364.90 972.99,364.91 972.99,364.92 972.99,364.93 972.99,364.94 972.99,364.95 972.99,364.96 972.99,364.97 972.99,364.98 972.99,364.99 972.99,365.00 972.99,365.01" fill="none" stroke="#176a9b" stroke-width="1.2"/>
<text x="583" y="363" font-size="12">class 0; Rmax=0.9590</text>
<text x="705" y="420" font-size="13">Recall (not confidence)</text>
</g></svg>