<?xml version="1.0" encoding="UTF-8"?>
<svg xmlns="http://www.w3.org/2000/svg" xmlns:xlink="http://www.w3.org/1999/xlink" width="854" height="480" viewBox="0 0 854 480">
<defs>
<g>
<g id="glyph-0-0">
<path d="M 4.597656 -5.5 L 4.316406 -5.332031 C 4.183594 -5.03125 4.054688 -4.730469 3.921875 -4.429688 L 6.09375 -4.429688 L 6.347656 -4.710938 L 6.742188 -4.34375 L 6.515625 -4.148438 C 6.480469 -1.984375 6.417969 -0.730469 6.332031 -0.382812 C 6.25 -0.03125 6.121094 0.210938 5.953125 0.351562 C 5.785156 0.492188 5.578125 0.609375 5.332031 0.707031 C 5.257812 0.421875 4.910156 0.199219 4.289062 0.0273438 L 4.289062 -0.113281 C 4.871094 0 5.28125 0.0429688 5.515625 0.015625 C 5.75 -0.015625 5.902344 -0.300781 5.96875 -0.847656 C 6.03125 -1.390625 6.085938 -2.53125 6.121094 -4.261719 L 3.867188 -4.261719 C 3.527344 -3.640625 3.179688 -3.140625 2.820312 -2.765625 L 2.707031 -2.820312 C 3.066406 -3.347656 3.347656 -3.894531 3.554688 -4.457031 C 3.761719 -5.023438 3.882812 -5.492188 3.921875 -5.867188 L 4.597656 -5.5 M 3.949219 -3.582031 C 4.382812 -3.339844 4.660156 -3.136719 4.78125 -2.976562 C 4.90625 -2.816406 4.964844 -2.691406 4.964844 -2.59375 C 4.964844 -2.5 4.921875 -2.398438 4.839844 -2.285156 C 4.753906 -2.171875 4.691406 -2.117188 4.65625 -2.117188 C 4.597656 -2.117188 4.542969 -2.210938 4.484375 -2.398438 C 4.410156 -2.679688 4.203125 -3.046875 3.867188 -3.5 L 3.949219 -3.582031 M 5.613281 -1.976562 C 5.277344 -1.730469 4.851562 -1.449219 4.34375 -1.128906 C 3.816406 -0.789062 3.460938 -0.5 3.273438 -0.253906 L 2.847656 -0.789062 C 3.113281 -0.863281 3.464844 -1.007812 3.90625 -1.214844 C 4.347656 -1.421875 4.898438 -1.710938 5.558594 -2.085938 L 5.613281 -1.976562 M 1.917969 -1.242188 L 3.132812 -1.691406 L 3.1875 -1.550781 C 2.472656 -1.214844 1.910156 -0.9375 1.496094 -0.71875 C 1.082031 -0.503906 0.828125 -0.328125 0.734375 -0.199219 L 0.308594 -0.761719 C 0.816406 -0.894531 1.222656 -1.015625 1.523438 -1.128906 L 1.523438 -3.554688 L 0.847656 -3.554688 L 0.59375 -3.5 L 0.367188 -3.722656 L 1.523438 -3.722656 C 1.523438 -4.777344 1.515625 -5.484375 1.496094 -5.839844 L 2.171875 -5.5 L 1.917969 -5.277344 L 1.917969 -3.722656 L 2.230469 -3.722656 L 2.539062 -4.035156 L 2.992188 -3.554688 L 1.917969 -3.554688 Z "/>
</g>
<g id="glyph-0-1">
<path d="M 0.308594 -4.429688 L 5.925781 -4.429688 L 6.347656 -4.851562 L 6.941406 -4.261719 L 3.46875 -4.261719 C 3.453125 -3.902344 3.40625 -3.488281 3.328125 -3.019531 L 5.164062 -3.019531 L 5.445312 -3.300781 L 5.898438 -2.878906 L 5.613281 -2.707031 C 5.425781 -1.261719 5.292969 -0.40625 5.21875 -0.140625 C 5.144531 0.121094 5.027344 0.304688 4.867188 0.410156 C 4.707031 0.511719 4.484375 0.601562 4.203125 0.675781 C 4.128906 0.375 3.816406 0.113281 3.273438 -0.113281 L 3.300781 -0.226562 C 3.808594 -0.0742188 4.144531 0.00390625 4.300781 0.015625 C 4.460938 0.0234375 4.585938 -0.0078125 4.667969 -0.0859375 C 4.753906 -0.160156 4.832031 -0.398438 4.910156 -0.804688 C 4.984375 -1.207031 5.078125 -1.890625 5.191406 -2.847656 L 3.300781 -2.847656 C 2.980469 -1.214844 2.058594 -0.046875 0.535156 0.648438 L 0.480469 0.535156 C 2.171875 -0.421875 3.019531 -2.023438 3.019531 -4.261719 L 1.242188 -4.261719 C 0.996094 -4.261719 0.769531 -4.230469 0.5625 -4.175781 L 0.308594 -4.429688 M 3.019531 -5.8125 C 3.507812 -5.625 3.792969 -5.464844 3.878906 -5.332031 C 3.964844 -5.199219 4.007812 -5.097656 4.007812 -5.023438 C 4.007812 -4.945312 3.96875 -4.859375 3.894531 -4.753906 C 3.816406 -4.652344 3.769531 -4.597656 3.753906 -4.597656 C 3.675781 -4.597656 3.601562 -4.703125 3.527344 -4.910156 C 3.414062 -5.191406 3.226562 -5.464844 2.960938 -5.726562 Z "/>
</g>
<g id="glyph-0-2">
<path d="M 1.101562 -5.53125 L 1.183594 -5.585938 C 1.542969 -5.359375 1.769531 -5.1875 1.863281 -5.0625 C 1.957031 -4.941406 1.992188 -4.816406 1.976562 -4.683594 C 1.957031 -4.550781 1.914062 -4.457031 1.847656 -4.402344 C 1.78125 -4.34375 1.738281 -4.316406 1.722656 -4.316406 C 1.644531 -4.316406 1.589844 -4.402344 1.550781 -4.570312 C 1.496094 -4.816406 1.34375 -5.136719 1.101562 -5.53125 M 1.832031 -0.675781 L 2.792969 -1.550781 L 2.878906 -1.496094 C 2.558594 -1.0625 2.3125 -0.734375 2.144531 -0.507812 C 1.957031 -0.261719 1.816406 -0.0390625 1.722656 0.167969 L 1.355469 -0.28125 C 1.429688 -0.375 1.46875 -0.507812 1.46875 -0.675781 L 1.46875 -3.132812 L 1.15625 -3.132812 C 1.007812 -3.132812 0.828125 -3.101562 0.621094 -3.046875 L 0.367188 -3.300781 L 1.4375 -3.300781 L 1.636719 -3.582031 L 2.058594 -3.214844 L 1.832031 -3.046875 L 1.832031 -0.675781 M 3.5 -5.246094 L 3.5 -4.007812 L 5.585938 -4.007812 L 5.585938 -5.246094 L 3.5 -5.246094 M 3.101562 -3.5 C 3.121094 -3.894531 3.132812 -4.261719 3.132812 -4.597656 C 3.132812 -4.9375 3.121094 -5.285156 3.101562 -5.644531 L 3.5 -5.417969 L 5.558594 -5.417969 L 5.726562 -5.671875 L 6.152344 -5.359375 L 5.953125 -5.191406 C 5.953125 -4.589844 5.960938 -4.109375 5.980469 -3.753906 L 5.585938 -3.582031 L 5.585938 -3.835938 L 3.5 -3.835938 L 3.5 -3.640625 L 3.101562 -3.5 M 2.679688 -3.074219 L 5.699219 -3.074219 L 6.066406 -3.441406 L 6.574219 -2.90625 L 4.65625 -2.90625 C 4.636719 -2.546875 4.617188 -2.210938 4.597656 -1.890625 L 5.953125 -1.890625 L 6.320312 -2.257812 L 6.828125 -1.722656 L 4.824219 -1.722656 C 5.277344 -0.648438 5.953125 -0.0390625 6.855469 0.113281 L 6.855469 0.226562 C 6.574219 0.226562 6.386719 0.339844 6.292969 0.5625 C 5.445312 0.0195312 4.917969 -0.742188 4.710938 -1.722656 L 4.570312 -1.722656 C 4.289062 -0.535156 3.488281 0.261719 2.171875 0.675781 L 2.117188 0.59375 C 3.28125 0.0078125 3.96875 -0.761719 4.175781 -1.722656 L 3.101562 -1.722656 C 2.914062 -1.722656 2.71875 -1.691406 2.511719 -1.636719 L 2.257812 -1.890625 L 4.203125 -1.890625 C 4.242188 -2.246094 4.261719 -2.585938 4.261719 -2.90625 L 3.527344 -2.90625 C 3.339844 -2.90625 3.140625 -2.878906 2.933594 -2.820312 Z "/>
</g>
<g id="glyph-0-3">
<path d="M 1.804688 -5.753906 L 1.863281 -5.839844 C 2.351562 -5.652344 2.632812 -5.5 2.707031 -5.390625 C 2.785156 -5.277344 2.820312 -5.183594 2.820312 -5.105469 C 2.820312 -5.011719 2.796875 -4.921875 2.75 -4.839844 C 2.703125 -4.753906 2.660156 -4.710938 2.625 -4.710938 C 2.566406 -4.710938 2.511719 -4.785156 2.453125 -4.9375 C 2.339844 -5.183594 2.125 -5.453125 1.804688 -5.753906 M 3.609375 -4.429688 C 3.535156 -4.070312 3.46875 -3.789062 3.414062 -3.582031 L 5.246094 -3.582031 L 5.613281 -3.949219 L 6.152344 -3.414062 L 3.386719 -3.414062 C 3.308594 -3.152344 3.207031 -2.867188 3.074219 -2.566406 L 5.726562 -2.566406 L 6.179688 -3.019531 L 6.800781 -2.398438 L 3.019531 -2.398438 C 2.4375 -1.308594 1.5625 -0.433594 0.394531 0.226562 L 0.367188 0.113281 C 1.363281 -0.582031 2.117188 -1.421875 2.625 -2.398438 L 1.070312 -2.398438 L 0.675781 -2.339844 L 0.453125 -2.566406 L 2.679688 -2.566406 C 2.792969 -2.847656 2.898438 -3.132812 2.992188 -3.414062 L 1.75 -3.414062 L 1.382812 -3.355469 L 1.15625 -3.582031 L 3.019531 -3.582031 C 3.09375 -3.882812 3.152344 -4.167969 3.1875 -4.429688 L 1.410156 -4.429688 L 1.015625 -4.375 L 0.789062 -4.597656 L 4.230469 -4.597656 C 4.570312 -5.238281 4.757812 -5.679688 4.796875 -5.925781 L 5.417969 -5.558594 C 5.230469 -5.539062 4.890625 -5.21875 4.402344 -4.597656 L 5.699219 -4.597656 L 6.121094 -5.023438 L 6.714844 -4.429688 L 3.609375 -4.429688 M 2.425781 -1.4375 L 5.246094 -1.4375 L 5.585938 -1.777344 L 6.09375 -1.269531 L 4.34375 -1.269531 L 4.34375 0.199219 L 5.867188 0.199219 L 6.261719 -0.199219 L 6.828125 0.367188 L 2.3125 0.367188 C 2.070312 0.367188 1.84375 0.394531 1.636719 0.453125 L 1.382812 0.199219 L 3.949219 0.199219 L 3.949219 -1.269531 L 2.960938 -1.269531 L 2.652344 -1.214844 Z "/>
</g>
<g id="glyph-0-4">
<path d="M 2.765625 -3.609375 L 2.765625 -2.03125 L 4.429688 -2.03125 L 4.429688 -3.609375 L 2.765625 -3.609375 M 2.371094 -1.242188 C 2.390625 -1.65625 2.398438 -2.109375 2.398438 -2.609375 C 2.398438 -3.109375 2.390625 -3.582031 2.371094 -4.035156 L 2.792969 -3.78125 L 4.402344 -3.78125 L 4.597656 -4.035156 L 5.050781 -3.722656 L 4.824219 -3.527344 C 4.824219 -2.492188 4.832031 -1.824219 4.851562 -1.523438 L 4.429688 -1.355469 L 4.429688 -1.863281 L 2.765625 -1.863281 L 2.765625 -1.410156 L 2.371094 -1.242188 M 6.207031 -5.050781 L 6.207031 -1.214844 C 6.207031 -0.78125 6.214844 -0.28125 6.234375 0.28125 L 5.839844 0.453125 L 5.839844 -0.113281 L 1.410156 -0.113281 L 1.410156 0.421875 L 0.988281 0.59375 C 1.007812 0.0859375 1.015625 -0.941406 1.015625 -2.484375 C 1.015625 -4.023438 1.007812 -5.050781 0.988281 -5.558594 L 1.410156 -5.304688 L 5.8125 -5.304688 L 5.980469 -5.585938 L 6.433594 -5.277344 L 6.207031 -5.050781 M 1.410156 -5.136719 L 1.410156 -0.28125 L 5.839844 -0.28125 L 5.839844 -5.136719 Z "/>
</g>
<g id="glyph-0-5">
<path d="M 1.4375 -4.457031 C 1.4375 -2.746094 1.449219 -1.664062 1.46875 -1.214844 L 1.015625 -0.988281 C 1.035156 -1.664062 1.042969 -2.390625 1.042969 -3.160156 C 1.042969 -3.929688 1.035156 -4.550781 1.015625 -5.023438 L 1.636719 -4.683594 L 1.4375 -4.457031 M 0.5625 0.648438 C 1.035156 0.308594 1.429688 -0.078125 1.75 -0.523438 C 2.070312 -0.964844 2.257812 -1.542969 2.3125 -2.257812 C 2.371094 -2.972656 2.398438 -3.640625 2.398438 -4.261719 C 2.398438 -4.882812 2.390625 -5.417969 2.371094 -5.867188 L 3.074219 -5.558594 L 2.820312 -5.332031 C 2.820312 -3.847656 2.773438 -2.75 2.679688 -2.046875 C 2.585938 -1.339844 2.339844 -0.769531 1.945312 -0.339844 C 1.550781 0.09375 1.109375 0.453125 0.621094 0.734375 L 0.5625 0.648438 M 6.375 -4.515625 L 6.375 -1.214844 C 6.375 -0.707031 6.386719 -0.207031 6.40625 0.28125 L 5.953125 0.453125 L 5.953125 -0.308594 L 3.667969 -0.308594 C 3.421875 -0.308594 3.199219 -0.28125 2.992188 -0.226562 L 2.738281 -0.480469 L 5.953125 -0.480469 L 5.953125 -2.59375 L 4.121094 -2.59375 C 3.875 -2.59375 3.648438 -2.566406 3.441406 -2.511719 L 3.1875 -2.765625 L 5.953125 -2.765625 L 5.953125 -4.628906 L 3.976562 -4.628906 C 3.734375 -4.628906 3.507812 -4.597656 3.300781 -4.542969 L 3.046875 -4.796875 L 5.898438 -4.796875 L 6.152344 -5.078125 L 6.601562 -4.683594 Z "/>
</g>
<g id="glyph-0-6">
<path d="M 2.652344 -4.65625 C 3.40625 -4.730469 4.089844 -4.84375 4.710938 -4.992188 C 5.332031 -5.144531 5.753906 -5.292969 5.980469 -5.445312 L 6.433594 -4.910156 C 6.167969 -4.910156 5.605469 -4.84375 4.738281 -4.710938 L 4.738281 -2.59375 L 5.925781 -2.59375 L 6.292969 -2.960938 L 6.828125 -2.425781 L 4.738281 -2.425781 L 4.738281 0.113281 L 6.007812 0.113281 L 6.375 -0.253906 L 6.914062 0.28125 L 3.214844 0.28125 C 2.972656 0.28125 2.746094 0.308594 2.539062 0.367188 L 2.285156 0.113281 L 4.34375 0.113281 L 4.34375 -2.425781 L 3.246094 -2.425781 C 3 -2.425781 2.773438 -2.398438 2.566406 -2.339844 L 2.3125 -2.59375 L 4.34375 -2.59375 L 4.34375 -4.65625 C 3.800781 -4.617188 3.234375 -4.578125 2.652344 -4.542969 L 2.652344 -4.65625 M 1.917969 -0.675781 C 1.917969 -0.1875 1.929688 0.199219 1.945312 0.480469 L 1.496094 0.734375 C 1.515625 0.0390625 1.523438 -0.480469 1.523438 -0.816406 L 1.523438 -3.441406 C 1.089844 -2.785156 0.6875 -2.277344 0.308594 -1.917969 L 0.253906 -2.003906 C 0.722656 -2.625 1.125 -3.296875 1.453125 -4.019531 C 1.78125 -4.746094 2.011719 -5.378906 2.144531 -5.925781 L 2.765625 -5.53125 C 2.632812 -5.492188 2.484375 -5.304688 2.3125 -4.964844 C 2.144531 -4.609375 1.964844 -4.242188 1.777344 -3.867188 L 2.144531 -3.640625 L 1.917969 -3.441406 Z "/>
</g>
<g id="glyph-0-7">
<path d="M 2.511719 -5.953125 L 3.101562 -5.613281 C 2.933594 -5.539062 2.785156 -5.390625 2.652344 -5.164062 L 4.65625 -5.164062 L 4.910156 -5.445312 L 5.417969 -5.023438 L 5.105469 -4.851562 C 4.785156 -4.289062 4.382812 -3.800781 3.894531 -3.386719 C 4.324219 -3.085938 4.824219 -2.859375 5.390625 -2.707031 C 5.953125 -2.558594 6.453125 -2.484375 6.882812 -2.484375 L 6.882812 -2.371094 C 6.527344 -2.292969 6.328125 -2.152344 6.292969 -1.945312 C 5.972656 -2.003906 5.542969 -2.144531 5.007812 -2.371094 C 4.472656 -2.59375 4.015625 -2.867188 3.640625 -3.1875 C 3.167969 -2.847656 2.65625 -2.558594 2.101562 -2.3125 C 1.546875 -2.070312 0.988281 -1.871094 0.421875 -1.722656 L 0.339844 -1.832031 C 0.976562 -2.039062 1.542969 -2.269531 2.03125 -2.523438 C 2.519531 -2.777344 2.980469 -3.074219 3.414062 -3.414062 C 3.054688 -3.769531 2.707031 -4.214844 2.371094 -4.738281 C 2.21875 -4.476562 2.027344 -4.214844 1.792969 -3.949219 C 1.554688 -3.6875 1.269531 -3.433594 0.929688 -3.1875 L 0.847656 -3.246094 C 1.203125 -3.582031 1.542969 -4.011719 1.863281 -4.527344 C 2.183594 -5.046875 2.398438 -5.519531 2.511719 -5.953125 M 2.453125 -4.882812 C 2.867188 -4.375 3.261719 -3.949219 3.640625 -3.609375 C 4.070312 -4.007812 4.421875 -4.46875 4.683594 -4.992188 L 2.566406 -4.992188 L 2.453125 -4.882812 M 5.417969 -1.550781 C 5.324219 -0.59375 5.210938 0.00390625 5.078125 0.238281 C 4.945312 0.476562 4.703125 0.628906 4.34375 0.707031 C 4.34375 0.515625 4.070312 0.300781 3.527344 0.0546875 L 3.554688 -0.0546875 C 4.023438 0.0546875 4.339844 0.113281 4.5 0.113281 C 4.660156 0.113281 4.777344 -0.0664062 4.851562 -0.421875 C 4.929688 -0.78125 4.984375 -1.183594 5.023438 -1.636719 L 3.386719 -1.636719 C 3.199219 -0.882812 2.855469 -0.34375 2.355469 -0.015625 C 1.855469 0.316406 1.324219 0.5625 0.761719 0.734375 L 0.675781 0.621094 C 1.242188 0.414062 1.726562 0.144531 2.128906 -0.183594 C 2.535156 -0.511719 2.820312 -0.996094 2.992188 -1.636719 L 2.285156 -1.636719 C 2.039062 -1.636719 1.816406 -1.609375 1.609375 -1.550781 L 1.355469 -1.804688 L 3.019531 -1.804688 C 3.09375 -2.199219 3.132812 -2.519531 3.132812 -2.765625 L 3.722656 -2.453125 L 3.527344 -2.285156 C 3.507812 -2.152344 3.46875 -1.992188 3.414062 -1.804688 L 4.964844 -1.804688 L 5.164062 -2.058594 L 5.644531 -1.722656 Z "/>
</g>
<g id="glyph-1-0">
</g>
<g id="glyph-1-1">
<path d="M 2.472656 1.15625 C 1.832031 1.078125 1.328125 0.753906 0.960938 0.1875 C 0.59375 -0.378906 0.414062 -1.144531 0.414062 -2.101562 C 0.414062 -3.078125 0.59375 -3.851562 0.960938 -4.421875 C 1.328125 -4.992188 1.832031 -5.316406 2.472656 -5.402344 L 2.472656 -5.109375 C 2.019531 -5.027344 1.675781 -4.738281 1.441406 -4.246094 C 1.207031 -3.753906 1.089844 -3.035156 1.089844 -2.09375 C 1.089844 -1.199219 1.203125 -0.503906 1.433594 -0.00390625 C 1.664062 0.492188 2.011719 0.78125 2.472656 0.867188 Z "/>
</g>
<g id="glyph-1-2">
<path d="M 6.371094 0 L 4.15625 0 L 4.15625 -0.25 C 4.238281 -0.253906 4.339844 -0.261719 4.464844 -0.273438 C 4.59375 -0.289062 4.679688 -0.308594 4.726562 -0.335938 C 4.796875 -0.378906 4.851562 -0.429688 4.886719 -0.488281 C 4.921875 -0.546875 4.9375 -0.617188 4.9375 -0.707031 L 4.9375 -4.34375 L 4.882812 -4.34375 L 3.175781 -0.0820312 L 3 -0.0820312 L 1.375 -4.433594 L 1.328125 -4.433594 L 1.328125 -1.445312 C 1.328125 -1.15625 1.347656 -0.9375 1.382812 -0.785156 C 1.421875 -0.636719 1.476562 -0.527344 1.550781 -0.460938 C 1.601562 -0.414062 1.710938 -0.367188 1.871094 -0.320312 C 2.035156 -0.277344 2.140625 -0.253906 2.191406 -0.25 L 2.191406 0 L 0.167969 0 L 0.167969 -0.25 C 0.273438 -0.261719 0.386719 -0.277344 0.503906 -0.304688 C 0.617188 -0.328125 0.707031 -0.367188 0.773438 -0.417969 C 0.855469 -0.484375 0.910156 -0.585938 0.941406 -0.722656 C 0.972656 -0.859375 0.988281 -1.085938 0.988281 -1.40625 L 0.988281 -3.96875 C 0.988281 -4.117188 0.96875 -4.238281 0.933594 -4.332031 C 0.898438 -4.425781 0.847656 -4.5 0.78125 -4.558594 C 0.710938 -4.625 0.621094 -4.671875 0.515625 -4.699219 C 0.410156 -4.730469 0.304688 -4.75 0.199219 -4.753906 L 0.199219 -5.003906 L 1.90625 -5.003906 L 3.339844 -1.25 L 4.566406 -4.390625 C 4.609375 -4.503906 4.648438 -4.625 4.679688 -4.753906 C 4.710938 -4.878906 4.726562 -4.960938 4.730469 -5.003906 L 6.363281 -5.003906 L 6.363281 -4.753906 C 6.296875 -4.75 6.210938 -4.742188 6.109375 -4.722656 C 6.007812 -4.703125 5.933594 -4.6875 5.886719 -4.667969 C 5.804688 -4.640625 5.753906 -4.59375 5.722656 -4.527344 C 5.695312 -4.460938 5.679688 -4.390625 5.679688 -4.3125 L 5.679688 -0.707031 C 5.679688 -0.625 5.695312 -0.554688 5.722656 -0.496094 C 5.753906 -0.441406 5.804688 -0.390625 5.886719 -0.347656 C 5.929688 -0.324219 6.003906 -0.304688 6.113281 -0.285156 C 6.21875 -0.265625 6.304688 -0.253906 6.371094 -0.25 Z "/>
</g>
<g id="glyph-1-3">
<path d="M 3.460938 -2.296875 C 3.566406 -2.179688 3.644531 -2.050781 3.695312 -1.910156 C 3.746094 -1.769531 3.769531 -1.605469 3.769531 -1.421875 C 3.769531 -0.980469 3.605469 -0.613281 3.28125 -0.328125 C 2.953125 -0.0429688 2.546875 0.101562 2.0625 0.101562 C 1.839844 0.101562 1.617188 0.0664062 1.394531 0 C 1.167969 -0.0703125 0.976562 -0.15625 0.816406 -0.253906 L 0.664062 0.00390625 L 0.382812 0.00390625 L 0.332031 -1.710938 L 0.617188 -1.710938 C 0.675781 -1.5 0.746094 -1.308594 0.824219 -1.136719 C 0.902344 -0.96875 1.007812 -0.808594 1.136719 -0.660156 C 1.257812 -0.519531 1.402344 -0.410156 1.5625 -0.328125 C 1.726562 -0.246094 1.917969 -0.203125 2.132812 -0.203125 C 2.296875 -0.203125 2.4375 -0.226562 2.558594 -0.269531 C 2.679688 -0.308594 2.777344 -0.371094 2.851562 -0.449219 C 2.929688 -0.527344 2.984375 -0.617188 3.019531 -0.722656 C 3.058594 -0.828125 3.074219 -0.949219 3.074219 -1.082031 C 3.074219 -1.285156 3.019531 -1.46875 2.90625 -1.644531 C 2.792969 -1.816406 2.625 -1.949219 2.402344 -2.039062 C 2.25 -2.097656 2.074219 -2.164062 1.875 -2.238281 C 1.679688 -2.3125 1.507812 -2.382812 1.363281 -2.449219 C 1.082031 -2.574219 0.863281 -2.742188 0.707031 -2.945312 C 0.550781 -3.152344 0.472656 -3.421875 0.472656 -3.753906 C 0.472656 -3.941406 0.511719 -4.121094 0.589844 -4.285156 C 0.667969 -4.449219 0.777344 -4.597656 0.921875 -4.726562 C 1.058594 -4.847656 1.21875 -4.945312 1.402344 -5.011719 C 1.589844 -5.082031 1.785156 -5.117188 1.984375 -5.117188 C 2.214844 -5.117188 2.421875 -5.082031 2.605469 -5.011719 C 2.785156 -4.941406 2.953125 -4.859375 3.101562 -4.765625 L 3.25 -5.003906 L 3.53125 -5.003906 L 3.558594 -3.34375 L 3.273438 -3.34375 C 3.222656 -3.535156 3.164062 -3.714844 3.097656 -3.890625 C 3.035156 -4.0625 2.949219 -4.222656 2.847656 -4.363281 C 2.746094 -4.5 2.621094 -4.609375 2.476562 -4.6875 C 2.328125 -4.769531 2.152344 -4.808594 1.941406 -4.808594 C 1.714844 -4.808594 1.527344 -4.738281 1.367188 -4.59375 C 1.210938 -4.453125 1.132812 -4.277344 1.132812 -4.070312 C 1.132812 -3.851562 1.183594 -3.675781 1.285156 -3.53125 C 1.386719 -3.390625 1.53125 -3.273438 1.722656 -3.179688 C 1.894531 -3.097656 2.066406 -3.027344 2.230469 -2.96875 C 2.394531 -2.90625 2.558594 -2.84375 2.710938 -2.777344 C 2.851562 -2.714844 2.988281 -2.644531 3.121094 -2.566406 C 3.25 -2.488281 3.363281 -2.398438 3.460938 -2.296875 Z "/>
</g>
<g id="glyph-1-4">
<path d="M 4.554688 -1.472656 L 4.457031 0 L 0.304688 0 L 0.304688 -0.25 C 0.375 -0.253906 0.46875 -0.265625 0.585938 -0.28125 C 0.703125 -0.296875 0.78125 -0.3125 0.816406 -0.328125 C 0.890625 -0.363281 0.941406 -0.410156 0.972656 -0.464844 C 1 -0.523438 1.015625 -0.59375 1.015625 -0.679688 L 1.015625 -4.277344 C 1.015625 -4.355469 1.003906 -4.425781 0.976562 -4.484375 C 0.949219 -4.542969 0.898438 -4.59375 0.816406 -4.628906 C 0.75 -4.660156 0.664062 -4.6875 0.558594 -4.710938 C 0.453125 -4.734375 0.367188 -4.75 0.304688 -4.753906 L 0.304688 -5.003906 L 4.175781 -5.003906 L 4.175781 -3.796875 L 3.910156 -3.796875 C 3.863281 -3.976562 3.761719 -4.167969 3.605469 -4.367188 C 3.449219 -4.570312 3.300781 -4.679688 3.160156 -4.699219 C 3.085938 -4.707031 3 -4.714844 2.898438 -4.71875 C 2.796875 -4.722656 2.683594 -4.726562 2.554688 -4.726562 L 1.765625 -4.726562 L 1.765625 -2.738281 L 2.332031 -2.738281 C 2.511719 -2.738281 2.644531 -2.753906 2.726562 -2.789062 C 2.8125 -2.820312 2.886719 -2.878906 2.949219 -2.957031 C 3 -3.027344 3.042969 -3.117188 3.082031 -3.230469 C 3.117188 -3.347656 3.140625 -3.453125 3.152344 -3.554688 L 3.417969 -3.554688 L 3.417969 -1.59375 L 3.152344 -1.59375 C 3.144531 -1.707031 3.117188 -1.828125 3.078125 -1.953125 C 3.035156 -2.078125 2.992188 -2.167969 2.949219 -2.226562 C 2.875 -2.316406 2.792969 -2.378906 2.699219 -2.40625 C 2.605469 -2.433594 2.484375 -2.449219 2.332031 -2.449219 L 1.765625 -2.449219 L 1.765625 -0.949219 C 1.765625 -0.796875 1.777344 -0.679688 1.796875 -0.59375 C 1.820312 -0.503906 1.859375 -0.4375 1.921875 -0.394531 C 1.984375 -0.351562 2.066406 -0.320312 2.171875 -0.308594 C 2.277344 -0.296875 2.429688 -0.289062 2.625 -0.289062 C 2.703125 -0.289062 2.804688 -0.289062 2.929688 -0.289062 C 3.058594 -0.289062 3.164062 -0.292969 3.25 -0.304688 C 3.339844 -0.3125 3.433594 -0.328125 3.527344 -0.355469 C 3.625 -0.378906 3.691406 -0.414062 3.730469 -0.453125 C 3.839844 -0.566406 3.953125 -0.738281 4.070312 -0.96875 C 4.191406 -1.199219 4.265625 -1.367188 4.300781 -1.472656 Z "/>
</g>
<g id="glyph-1-5">
<path d="M 2.296875 -2.101562 C 2.296875 -1.144531 2.113281 -0.378906 1.746094 0.1875 C 1.382812 0.753906 0.878906 1.078125 0.234375 1.15625 L 0.234375 0.867188 C 0.695312 0.78125 1.042969 0.492188 1.273438 -0.00390625 C 1.503906 -0.503906 1.617188 -1.199219 1.617188 -2.09375 C 1.617188 -3.035156 1.5 -3.753906 1.265625 -4.246094 C 1.03125 -4.738281 0.6875 -5.027344 0.234375 -5.109375 L 0.234375 -5.402344 C 0.878906 -5.316406 1.382812 -4.992188 1.746094 -4.421875 C 2.113281 -3.851562 2.296875 -3.078125 2.296875 -2.101562 Z "/>
</g>
<g id="glyph-1-6">
<path d="M 5.828125 -1.753906 L 0.359375 -1.753906 L 0.359375 -2.195312 L 5.828125 -2.195312 Z "/>
</g>
</g>
</defs>
<g fill="rgb(51.372549%, 75.686275%, 40.392157%)" fill-opacity="1">
<use xlink:href="#glyph-0-0" x="30" y="27.091797"/>
<use xlink:href="#glyph-0-1" x="37" y="27.091797"/>
<use xlink:href="#glyph-0-2" x="44" y="27.091797"/>
<use xlink:href="#glyph-0-3" x="51" y="27.091797"/>
</g>
<g fill="rgb(51.372549%, 75.686275%, 40.392157%)" fill-opacity="1">
<use xlink:href="#glyph-1-0" x="58" y="26.623047"/>
<use xlink:href="#glyph-1-1" x="60" y="26.623047"/>
</g>
<g fill="rgb(51.372549%, 75.686275%, 40.392157%)" fill-opacity="1">
<use xlink:href="#glyph-1-2" x="63" y="26.623047"/>
<use xlink:href="#glyph-1-3" x="70" y="26.623047"/>
<use xlink:href="#glyph-1-4" x="74" y="26.623047"/>
</g>
<g fill="rgb(51.372549%, 75.686275%, 40.392157%)" fill-opacity="1">
<use xlink:href="#glyph-1-5" x="79" y="26.623047"/>
<use xlink:href="#glyph-1-0" x="82" y="26.623047"/>
<use xlink:href="#glyph-1-6" x="84" y="26.623047"/>
<use xlink:href="#glyph-1-0" x="90" y="26.623047"/>
</g>
<g fill="rgb(51.372549%, 75.686275%, 40.392157%)" fill-opacity="1">
<use xlink:href="#glyph-0-4" x="92" y="27.091797"/>
<use xlink:href="#glyph-0-5" x="99" y="27.091797"/>
<use xlink:href="#glyph-0-6" x="106" y="27.091797"/>
<use xlink:href="#glyph-0-7" x="113" y="27.091797"/>
</g>
</svg>
