<?xml version="1.0" encoding="UTF-8"?>
<svg xmlns="http://www.w3.org/2000/svg" xmlns:xlink="http://www.w3.org/1999/xlink" width="854" height="480" viewBox="0 0 854 480">
<defs>
<g>
<g id="glyph-0-0">
<path d="M 0.675781 -3.453125 L 0.695312 -3.507812 C 0.949219 -3.390625 1.125 -3.292969 1.222656 -3.210938 C 1.320312 -3.128906 1.371094 -3.050781 1.371094 -2.96875 C 1.371094 -2.886719 1.351562 -2.828125 1.3125 -2.792969 C 1.269531 -2.761719 1.242188 -2.742188 1.234375 -2.742188 C 1.175781 -2.742188 1.121094 -2.8125 1.078125 -2.949219 C 0.996094 -3.125 0.863281 -3.292969 0.675781 -3.453125 M 1.144531 -0.261719 L 1.824219 -0.851562 L 1.859375 -0.796875 C 1.453125 -0.277344 1.203125 0.0703125 1.109375 0.242188 L 0.851562 -0.0507812 C 0.898438 -0.121094 0.921875 -0.230469 0.921875 -0.382812 L 0.921875 -1.945312 L 0.46875 -1.945312 L 0.625 -1.945312 C 0.554688 -1.945312 0.457031 -1.925781 0.328125 -1.890625 L 0.171875 -2.046875 L 0.886719 -2.046875 L 1.078125 -2.238281 L 1.320312 -1.996094 L 1.144531 -1.875 L 1.144531 -0.261719 M 2.671875 -2.03125 C 2.671875 -2.804688 2.667969 -3.308594 2.65625 -3.542969 L 3.074219 -3.351562 L 2.933594 -3.210938 L 2.933594 -2.03125 L 3.714844 -2.03125 L 3.941406 -2.257812 L 4.253906 -1.925781 L 2.933594 -1.925781 L 2.933594 -0.347656 C 2.933594 -0.117188 2.941406 0.0976562 2.949219 0.296875 L 2.65625 0.417969 C 2.667969 0.0585938 2.671875 -0.214844 2.671875 -0.398438 L 2.671875 -1.925781 L 1.789062 -1.925781 L 2.046875 -1.925781 C 1.910156 -1.925781 1.777344 -1.910156 1.648438 -1.875 L 1.492188 -2.03125 Z "/>
</g>
<g id="glyph-0-1">
<path d="M 1.859375 -1.058594 C 1.847656 -0.875 1.828125 -0.695312 1.804688 -0.519531 L 2.65625 -0.519531 L 2.65625 -1.058594 L 1.859375 -1.058594 M 3.402344 -1.441406 C 3.402344 -1.347656 3.410156 -1.199219 3.417969 -0.988281 L 3.160156 -0.886719 L 3.160156 -1.058594 L 2.898438 -1.058594 L 2.898438 -0.539062 L 3.679688 -0.539062 L 3.921875 -0.765625 L 4.234375 -0.433594 L 2.898438 -0.433594 C 2.898438 -0.0390625 2.90625 0.214844 2.917969 0.328125 L 2.636719 0.453125 C 2.648438 0.105469 2.65625 -0.183594 2.65625 -0.417969 L 1.789062 -0.417969 C 1.707031 -0.160156 1.535156 0.0351562 1.277344 0.171875 C 1.015625 0.3125 0.734375 0.40625 0.433594 0.453125 L 0.417969 0.398438 C 0.753906 0.285156 1.003906 0.164062 1.171875 0.0429688 C 1.339844 -0.078125 1.457031 -0.230469 1.527344 -0.417969 L 0.78125 -0.417969 C 0.628906 -0.417969 0.492188 -0.398438 0.363281 -0.363281 L 0.207031 -0.519531 L 1.546875 -0.519531 C 1.566406 -0.683594 1.585938 -0.863281 1.597656 -1.058594 L 1.285156 -1.058594 L 1.285156 -0.921875 L 1.042969 -0.832031 C 1.054688 -1.191406 1.054688 -1.558594 1.050781 -1.9375 C 1.042969 -2.3125 1.035156 -2.539062 1.023438 -2.621094 L 1.285156 -2.480469 L 3.140625 -2.480469 L 3.246094 -2.636719 L 3.523438 -2.449219 L 3.402344 -2.34375 L 3.402344 -1.441406 M 1.285156 -2.378906 L 1.285156 -2.066406 L 3.160156 -2.066406 L 3.160156 -2.378906 L 1.285156 -2.378906 M 1.285156 -1.960938 L 1.285156 -1.632812 L 3.160156 -1.632812 L 3.160156 -1.960938 L 1.285156 -1.960938 M 1.285156 -1.527344 L 1.285156 -1.164062 L 3.160156 -1.164062 L 3.160156 -1.527344 L 1.285156 -1.527344 M 1.09375 -3.664062 L 1.441406 -3.472656 C 1.371094 -3.4375 1.316406 -3.398438 1.277344 -3.351562 C 1.234375 -3.304688 1.179688 -3.230469 1.109375 -3.125 L 1.875 -3.125 L 2.082031 -3.332031 L 2.359375 -3.019531 L 1.476562 -3.019531 C 1.71875 -2.894531 1.824219 -2.785156 1.796875 -2.699219 C 1.769531 -2.613281 1.738281 -2.558594 1.710938 -2.542969 C 1.679688 -2.527344 1.65625 -2.515625 1.632812 -2.515625 C 1.597656 -2.515625 1.574219 -2.539062 1.5625 -2.578125 C 1.550781 -2.617188 1.539062 -2.679688 1.527344 -2.761719 C 1.503906 -2.828125 1.445312 -2.917969 1.355469 -3.019531 L 1.058594 -3.019531 C 0.941406 -2.847656 0.832031 -2.703125 0.730469 -2.585938 C 0.625 -2.472656 0.492188 -2.355469 0.328125 -2.238281 L 0.296875 -2.292969 C 0.398438 -2.394531 0.519531 -2.546875 0.660156 -2.742188 C 0.796875 -2.941406 0.941406 -3.246094 1.09375 -3.664062 M 2.777344 -3.644531 L 3.089844 -3.4375 C 3.03125 -3.425781 2.972656 -3.386719 2.917969 -3.316406 C 2.859375 -3.246094 2.804688 -3.175781 2.761719 -3.105469 L 3.699219 -3.105469 L 3.90625 -3.296875 L 4.167969 -3.003906 L 3.246094 -3.003906 C 3.535156 -2.910156 3.679688 -2.820312 3.679688 -2.734375 C 3.679688 -2.648438 3.660156 -2.585938 3.621094 -2.550781 C 3.578125 -2.515625 3.554688 -2.5 3.542969 -2.5 C 3.519531 -2.5 3.492188 -2.527344 3.464844 -2.578125 C 3.433594 -2.628906 3.402344 -2.6875 3.367188 -2.75 C 3.332031 -2.816406 3.253906 -2.898438 3.125 -3.003906 L 2.707031 -3.003906 C 2.628906 -2.921875 2.550781 -2.839844 2.480469 -2.761719 C 2.402344 -2.667969 2.320312 -2.585938 2.238281 -2.515625 L 2.1875 -2.550781 C 2.324219 -2.726562 2.457031 -2.929688 2.578125 -3.167969 C 2.699219 -3.40625 2.765625 -3.566406 2.777344 -3.644531 Z "/>
</g>
<g id="glyph-1-0">
</g>
<g id="glyph-1-1">
<path d="M 2.210938 -1.257812 C 2.265625 -1.203125 2.3125 -1.136719 2.34375 -1.0625 C 2.378906 -0.984375 2.394531 -0.894531 2.394531 -0.792969 C 2.394531 -0.566406 2.304688 -0.375 2.132812 -0.21875 C 1.960938 -0.0664062 1.742188 0.0195312 1.476562 0.0351562 L 1.476562 0.648438 L 1.300781 0.648438 L 1.300781 0.0429688 C 1.011719 0.0351562 0.78125 -0.03125 0.601562 -0.164062 C 0.425781 -0.292969 0.335938 -0.457031 0.335938 -0.652344 C 0.335938 -0.738281 0.355469 -0.800781 0.394531 -0.847656 C 0.429688 -0.894531 0.484375 -0.914062 0.550781 -0.914062 C 0.628906 -0.914062 0.6875 -0.898438 0.730469 -0.859375 C 0.773438 -0.820312 0.796875 -0.773438 0.796875 -0.722656 C 0.796875 -0.683594 0.78125 -0.625 0.753906 -0.546875 C 0.726562 -0.46875 0.710938 -0.414062 0.703125 -0.382812 C 0.746094 -0.308594 0.816406 -0.25 0.921875 -0.203125 C 1.023438 -0.15625 1.152344 -0.132812 1.300781 -0.128906 L 1.300781 -1.226562 C 1.234375 -1.25 1.179688 -1.273438 1.132812 -1.289062 C 1.085938 -1.304688 1.023438 -1.332031 0.949219 -1.363281 C 0.78125 -1.429688 0.652344 -1.519531 0.558594 -1.628906 C 0.464844 -1.742188 0.417969 -1.886719 0.417969 -2.0625 C 0.417969 -2.269531 0.503906 -2.445312 0.675781 -2.589844 C 0.851562 -2.730469 1.058594 -2.804688 1.300781 -2.808594 L 1.300781 -3.308594 L 1.476562 -3.308594 L 1.476562 -2.808594 C 1.621094 -2.808594 1.746094 -2.785156 1.859375 -2.746094 C 1.96875 -2.707031 2.058594 -2.660156 2.125 -2.601562 C 2.195312 -2.542969 2.25 -2.480469 2.285156 -2.410156 C 2.320312 -2.339844 2.335938 -2.273438 2.335938 -2.210938 C 2.335938 -2.144531 2.320312 -2.089844 2.292969 -2.042969 C 2.261719 -1.996094 2.210938 -1.976562 2.140625 -1.976562 C 2.070312 -1.976562 2.011719 -1.992188 1.964844 -2.027344 C 1.917969 -2.066406 1.894531 -2.105469 1.894531 -2.152344 C 1.894531 -2.203125 1.898438 -2.257812 1.910156 -2.308594 C 1.921875 -2.363281 1.933594 -2.410156 1.941406 -2.449219 C 1.9375 -2.457031 1.921875 -2.472656 1.898438 -2.496094 C 1.875 -2.519531 1.84375 -2.539062 1.8125 -2.558594 C 1.777344 -2.578125 1.726562 -2.597656 1.667969 -2.613281 C 1.609375 -2.628906 1.546875 -2.636719 1.476562 -2.636719 L 1.476562 -1.628906 C 1.535156 -1.609375 1.582031 -1.589844 1.621094 -1.578125 C 1.65625 -1.5625 1.707031 -1.542969 1.761719 -1.519531 C 1.851562 -1.488281 1.933594 -1.449219 2.007812 -1.40625 C 2.085938 -1.367188 2.152344 -1.316406 2.210938 -1.257812 M 1.300781 -1.683594 L 1.300781 -2.636719 C 1.160156 -2.636719 1.042969 -2.597656 0.945312 -2.515625 C 0.851562 -2.4375 0.804688 -2.339844 0.804688 -2.222656 C 0.804688 -2.097656 0.832031 -1.996094 0.890625 -1.921875 C 0.949219 -1.847656 1.039062 -1.785156 1.160156 -1.734375 C 1.179688 -1.730469 1.199219 -1.71875 1.226562 -1.710938 C 1.253906 -1.699219 1.277344 -1.691406 1.300781 -1.683594 M 1.984375 -0.617188 C 1.984375 -0.734375 1.953125 -0.839844 1.894531 -0.925781 C 1.832031 -1.011719 1.726562 -1.085938 1.578125 -1.144531 C 1.5625 -1.152344 1.542969 -1.15625 1.527344 -1.164062 C 1.511719 -1.167969 1.492188 -1.175781 1.476562 -1.179688 L 1.476562 -0.132812 C 1.648438 -0.140625 1.773438 -0.191406 1.859375 -0.277344 C 1.941406 -0.363281 1.984375 -0.476562 1.984375 -0.617188 Z "/>
</g>
<g id="glyph-1-2">
<path d="M 1.976562 0.921875 L 1.695312 0.921875 L 0.195312 -3.304688 L 0.480469 -3.304688 Z "/>
</g>
<g id="glyph-1-3">
<path d="M 1.75 -3.097656 C 1.75 -3.035156 1.730469 -2.980469 1.695312 -2.933594 C 1.664062 -2.890625 1.609375 -2.867188 1.539062 -2.867188 C 1.492188 -2.867188 1.453125 -2.875 1.421875 -2.894531 C 1.386719 -2.914062 1.355469 -2.9375 1.324219 -2.96875 C 1.296875 -3.003906 1.269531 -3.039062 1.246094 -3.078125 C 1.222656 -3.121094 1.199219 -3.152344 1.183594 -3.175781 C 1.085938 -3.171875 1.011719 -3.105469 0.957031 -2.972656 C 0.90625 -2.84375 0.878906 -2.636719 0.878906 -2.347656 L 0.878906 -2.132812 L 1.429688 -2.132812 L 1.429688 -1.921875 L 0.878906 -1.921875 L 0.878906 -0.386719 C 0.878906 -0.335938 0.886719 -0.292969 0.90625 -0.261719 C 0.925781 -0.230469 0.957031 -0.207031 1 -0.191406 C 1.035156 -0.179688 1.082031 -0.167969 1.140625 -0.160156 C 1.195312 -0.152344 1.246094 -0.144531 1.289062 -0.144531 L 1.289062 0 L 0.160156 0 L 0.160156 -0.144531 C 0.195312 -0.144531 0.226562 -0.148438 0.261719 -0.152344 C 0.300781 -0.15625 0.328125 -0.160156 0.355469 -0.167969 C 0.394531 -0.183594 0.425781 -0.203125 0.445312 -0.238281 C 0.464844 -0.269531 0.476562 -0.3125 0.476562 -0.363281 L 0.476562 -1.921875 L 0.0507812 -1.921875 L 0.0507812 -2.132812 L 0.476562 -2.132812 L 0.476562 -2.265625 C 0.476562 -2.59375 0.558594 -2.855469 0.726562 -3.058594 C 0.898438 -3.257812 1.105469 -3.359375 1.359375 -3.359375 C 1.488281 -3.359375 1.585938 -3.332031 1.652344 -3.28125 C 1.714844 -3.234375 1.75 -3.171875 1.75 -3.097656 Z "/>
</g>
<g id="glyph-1-4">
<path d="M 1.792969 -1.863281 C 1.792969 -1.789062 1.777344 -1.726562 1.742188 -1.667969 C 1.703125 -1.609375 1.648438 -1.582031 1.574219 -1.582031 C 1.492188 -1.582031 1.429688 -1.601562 1.386719 -1.644531 C 1.34375 -1.6875 1.324219 -1.734375 1.324219 -1.785156 C 1.324219 -1.816406 1.328125 -1.84375 1.332031 -1.871094 C 1.335938 -1.898438 1.339844 -1.921875 1.34375 -1.949219 C 1.277344 -1.949219 1.199219 -1.921875 1.105469 -1.867188 C 1.015625 -1.8125 0.9375 -1.734375 0.875 -1.632812 L 0.875 -0.386719 C 0.875 -0.335938 0.882812 -0.292969 0.902344 -0.261719 C 0.921875 -0.230469 0.953125 -0.207031 0.996094 -0.191406 C 1.03125 -0.175781 1.078125 -0.164062 1.136719 -0.160156 C 1.191406 -0.152344 1.242188 -0.144531 1.285156 -0.144531 L 1.285156 0 L 0.15625 0 L 0.15625 -0.144531 C 0.191406 -0.144531 0.222656 -0.148438 0.257812 -0.152344 C 0.292969 -0.15625 0.324219 -0.160156 0.351562 -0.167969 C 0.390625 -0.183594 0.421875 -0.203125 0.441406 -0.238281 C 0.460938 -0.269531 0.472656 -0.3125 0.472656 -0.363281 L 0.472656 -1.683594 C 0.472656 -1.730469 0.460938 -1.773438 0.4375 -1.816406 C 0.417969 -1.859375 0.390625 -1.894531 0.351562 -1.921875 C 0.324219 -1.9375 0.292969 -1.949219 0.253906 -1.957031 C 0.214844 -1.964844 0.175781 -1.972656 0.132812 -1.976562 L 0.132812 -2.117188 L 0.84375 -2.164062 L 0.875 -2.136719 L 0.875 -1.832031 L 0.886719 -1.832031 C 0.976562 -1.949219 1.074219 -2.039062 1.183594 -2.101562 C 1.292969 -2.160156 1.394531 -2.191406 1.488281 -2.191406 C 1.578125 -2.191406 1.652344 -2.160156 1.707031 -2.101562 C 1.765625 -2.042969 1.792969 -1.964844 1.792969 -1.863281 Z "/>
</g>
<g id="glyph-1-5">
<path d="M 2.183594 -0.0390625 C 2.113281 -0.015625 2.054688 0.00390625 2.003906 0.0195312 C 1.953125 0.0351562 1.894531 0.0429688 1.828125 0.0429688 C 1.714844 0.0429688 1.625 0.015625 1.558594 -0.0351562 C 1.492188 -0.0898438 1.449219 -0.164062 1.429688 -0.265625 L 1.417969 -0.265625 C 1.324219 -0.164062 1.222656 -0.0820312 1.113281 -0.0273438 C 1.007812 0.0273438 0.875 0.0546875 0.726562 0.0546875 C 0.5625 0.0546875 0.433594 0.00390625 0.328125 -0.09375 C 0.226562 -0.191406 0.171875 -0.320312 0.171875 -0.480469 C 0.171875 -0.5625 0.183594 -0.636719 0.207031 -0.699219 C 0.230469 -0.765625 0.265625 -0.824219 0.3125 -0.875 C 0.347656 -0.921875 0.394531 -0.957031 0.457031 -0.992188 C 0.515625 -1.027344 0.570312 -1.054688 0.621094 -1.074219 C 0.6875 -1.097656 0.820312 -1.144531 1.019531 -1.210938 C 1.21875 -1.277344 1.351562 -1.328125 1.421875 -1.367188 L 1.421875 -1.582031 C 1.421875 -1.601562 1.417969 -1.636719 1.410156 -1.691406 C 1.402344 -1.742188 1.382812 -1.792969 1.359375 -1.84375 C 1.328125 -1.894531 1.289062 -1.941406 1.234375 -1.980469 C 1.183594 -2.023438 1.109375 -2.042969 1.011719 -2.042969 C 0.945312 -2.042969 0.882812 -2.03125 0.824219 -2.007812 C 0.769531 -1.984375 0.726562 -1.960938 0.707031 -1.9375 C 0.707031 -1.910156 0.710938 -1.867188 0.726562 -1.808594 C 0.738281 -1.753906 0.746094 -1.703125 0.746094 -1.652344 C 0.746094 -1.601562 0.722656 -1.554688 0.679688 -1.515625 C 0.632812 -1.472656 0.570312 -1.453125 0.488281 -1.453125 C 0.414062 -1.453125 0.363281 -1.476562 0.328125 -1.527344 C 0.292969 -1.578125 0.277344 -1.636719 0.277344 -1.703125 C 0.277344 -1.769531 0.300781 -1.832031 0.347656 -1.890625 C 0.394531 -1.953125 0.457031 -2.007812 0.53125 -2.054688 C 0.597656 -2.09375 0.675781 -2.128906 0.769531 -2.15625 C 0.859375 -2.1875 0.949219 -2.199219 1.039062 -2.199219 C 1.160156 -2.199219 1.265625 -2.191406 1.355469 -2.175781 C 1.449219 -2.160156 1.53125 -2.121094 1.605469 -2.066406 C 1.675781 -2.015625 1.734375 -1.941406 1.773438 -1.851562 C 1.808594 -1.757812 1.828125 -1.640625 1.828125 -1.496094 C 1.828125 -1.289062 1.828125 -1.105469 1.824219 -0.945312 C 1.820312 -0.785156 1.816406 -0.609375 1.816406 -0.421875 C 1.816406 -0.363281 1.824219 -0.320312 1.84375 -0.285156 C 1.863281 -0.253906 1.894531 -0.226562 1.9375 -0.203125 C 1.957031 -0.1875 1.992188 -0.179688 2.039062 -0.179688 C 2.085938 -0.179688 2.132812 -0.179688 2.183594 -0.179688 L 2.183594 -0.0390625 M 1.425781 -1.183594 C 1.300781 -1.148438 1.195312 -1.113281 1.101562 -1.078125 C 1.007812 -1.042969 0.921875 -1 0.84375 -0.949219 C 0.773438 -0.898438 0.714844 -0.839844 0.671875 -0.773438 C 0.628906 -0.707031 0.609375 -0.625 0.609375 -0.53125 C 0.609375 -0.410156 0.640625 -0.324219 0.703125 -0.265625 C 0.765625 -0.210938 0.847656 -0.183594 0.945312 -0.183594 C 1.046875 -0.183594 1.136719 -0.207031 1.214844 -0.257812 C 1.292969 -0.308594 1.359375 -0.367188 1.414062 -0.433594 Z "/>
</g>
<g id="glyph-1-6">
<path d="M 1.144531 0.0546875 C 0.835938 0.0546875 0.59375 -0.046875 0.417969 -0.25 C 0.242188 -0.457031 0.15625 -0.734375 0.15625 -1.078125 C 0.15625 -1.230469 0.179688 -1.371094 0.226562 -1.5 C 0.273438 -1.632812 0.34375 -1.75 0.433594 -1.859375 C 0.515625 -1.960938 0.625 -2.042969 0.753906 -2.105469 C 0.882812 -2.167969 1.023438 -2.199219 1.175781 -2.199219 C 1.382812 -2.199219 1.554688 -2.148438 1.6875 -2.050781 C 1.816406 -1.949219 1.882812 -1.8125 1.882812 -1.636719 C 1.882812 -1.566406 1.867188 -1.5 1.832031 -1.445312 C 1.796875 -1.390625 1.738281 -1.363281 1.660156 -1.363281 C 1.574219 -1.363281 1.507812 -1.382812 1.460938 -1.425781 C 1.414062 -1.472656 1.390625 -1.519531 1.390625 -1.574219 C 1.390625 -1.636719 1.398438 -1.703125 1.417969 -1.773438 C 1.433594 -1.839844 1.445312 -1.890625 1.449219 -1.921875 C 1.421875 -1.96875 1.382812 -1.996094 1.332031 -2.011719 C 1.28125 -2.027344 1.226562 -2.035156 1.164062 -2.035156 C 1.097656 -2.035156 1.03125 -2.019531 0.96875 -1.992188 C 0.90625 -1.960938 0.84375 -1.90625 0.785156 -1.828125 C 0.730469 -1.753906 0.6875 -1.65625 0.65625 -1.535156 C 0.621094 -1.410156 0.605469 -1.265625 0.605469 -1.09375 C 0.605469 -0.824219 0.664062 -0.605469 0.785156 -0.433594 C 0.902344 -0.265625 1.058594 -0.179688 1.253906 -0.179688 C 1.394531 -0.179688 1.511719 -0.214844 1.605469 -0.28125 C 1.699219 -0.351562 1.789062 -0.453125 1.867188 -0.589844 L 2.007812 -0.5 C 1.910156 -0.328125 1.785156 -0.191406 1.628906 -0.09375 C 1.472656 0.0078125 1.3125 0.0546875 1.144531 0.0546875 Z "/>
</g>
<g id="glyph-1-7">
<path d="M 1.765625 0.722656 C 1.613281 0.722656 1.476562 0.710938 1.355469 0.691406 C 1.234375 0.671875 1.132812 0.628906 1.050781 0.574219 C 0.964844 0.511719 0.902344 0.433594 0.859375 0.335938 C 0.816406 0.234375 0.796875 0.105469 0.796875 -0.0585938 C 0.796875 -0.144531 0.800781 -0.238281 0.8125 -0.339844 C 0.824219 -0.441406 0.828125 -0.53125 0.828125 -0.609375 C 0.828125 -0.714844 0.8125 -0.800781 0.785156 -0.867188 C 0.753906 -0.9375 0.707031 -0.992188 0.648438 -1.035156 C 0.589844 -1.078125 0.519531 -1.105469 0.433594 -1.125 C 0.347656 -1.144531 0.257812 -1.15625 0.15625 -1.164062 L 0.15625 -1.445312 C 0.257812 -1.453125 0.351562 -1.46875 0.4375 -1.488281 C 0.527344 -1.511719 0.597656 -1.539062 0.652344 -1.578125 C 0.714844 -1.625 0.757812 -1.679688 0.785156 -1.75 C 0.816406 -1.820312 0.828125 -1.902344 0.828125 -2 C 0.828125 -2.082031 0.824219 -2.175781 0.8125 -2.273438 C 0.800781 -2.375 0.796875 -2.46875 0.796875 -2.554688 C 0.796875 -2.703125 0.816406 -2.832031 0.859375 -2.933594 C 0.902344 -3.035156 0.964844 -3.117188 1.050781 -3.179688 C 1.132812 -3.238281 1.234375 -3.277344 1.359375 -3.300781 C 1.480469 -3.324219 1.617188 -3.335938 1.765625 -3.335938 L 1.765625 -3.15625 C 1.707031 -3.15625 1.640625 -3.148438 1.566406 -3.132812 C 1.488281 -3.121094 1.429688 -3.105469 1.382812 -3.078125 C 1.332031 -3.050781 1.289062 -3.003906 1.257812 -2.941406 C 1.226562 -2.878906 1.207031 -2.792969 1.207031 -2.6875 L 1.207031 -2.179688 C 1.207031 -2.027344 1.191406 -1.902344 1.152344 -1.800781 C 1.117188 -1.703125 1.0625 -1.621094 0.992188 -1.558594 C 0.929688 -1.5 0.851562 -1.453125 0.761719 -1.421875 C 0.671875 -1.386719 0.570312 -1.359375 0.460938 -1.339844 L 0.460938 -1.273438 C 0.566406 -1.25 0.664062 -1.222656 0.753906 -1.191406 C 0.847656 -1.15625 0.925781 -1.113281 0.992188 -1.050781 C 1.0625 -0.992188 1.113281 -0.910156 1.152344 -0.8125 C 1.191406 -0.710938 1.207031 -0.585938 1.207031 -0.433594 L 1.207031 0.0742188 C 1.207031 0.175781 1.222656 0.257812 1.253906 0.324219 C 1.285156 0.386719 1.328125 0.433594 1.382812 0.46875 C 1.4375 0.5 1.5 0.519531 1.570312 0.53125 C 1.640625 0.539062 1.707031 0.546875 1.765625 0.550781 Z "/>
</g>
<g id="glyph-1-8">
<path d="M 2.113281 -1.886719 C 2.195312 -1.785156 2.261719 -1.667969 2.308594 -1.53125 C 2.355469 -1.398438 2.378906 -1.246094 2.378906 -1.074219 C 2.378906 -0.90625 2.351562 -0.75 2.296875 -0.609375 C 2.238281 -0.472656 2.164062 -0.351562 2.074219 -0.253906 C 1.976562 -0.152344 1.867188 -0.078125 1.75 -0.0234375 C 1.628906 0.03125 1.503906 0.0546875 1.371094 0.0546875 C 1.242188 0.0546875 1.136719 0.0429688 1.054688 0.0117188 C 0.972656 -0.015625 0.90625 -0.0507812 0.851562 -0.0898438 L 0.835938 -0.0898438 L 0.835938 0.554688 C 0.835938 0.605469 0.84375 0.652344 0.867188 0.683594 C 0.886719 0.71875 0.917969 0.746094 0.960938 0.761719 C 0.992188 0.773438 1.042969 0.789062 1.109375 0.800781 C 1.171875 0.8125 1.226562 0.820312 1.265625 0.820312 L 1.265625 0.964844 L 0.0703125 0.964844 L 0.0703125 0.820312 C 0.117188 0.816406 0.160156 0.8125 0.203125 0.808594 C 0.242188 0.804688 0.28125 0.796875 0.316406 0.789062 C 0.359375 0.773438 0.386719 0.746094 0.40625 0.710938 C 0.421875 0.675781 0.433594 0.632812 0.433594 0.582031 L 0.433594 -1.691406 C 0.433594 -1.734375 0.421875 -1.777344 0.398438 -1.820312 C 0.378906 -1.859375 0.347656 -1.890625 0.316406 -1.917969 C 0.289062 -1.933594 0.253906 -1.945312 0.207031 -1.957031 C 0.160156 -1.964844 0.113281 -1.972656 0.0703125 -1.976562 L 0.0703125 -2.117188 L 0.800781 -2.164062 L 0.832031 -2.140625 L 0.832031 -1.898438 L 0.847656 -1.894531 C 0.921875 -1.980469 1.015625 -2.054688 1.128906 -2.113281 C 1.238281 -2.167969 1.351562 -2.199219 1.460938 -2.199219 C 1.59375 -2.199219 1.714844 -2.171875 1.824219 -2.113281 C 1.9375 -2.058594 2.03125 -1.980469 2.113281 -1.886719 M 1.757812 -0.347656 C 1.816406 -0.4375 1.859375 -0.542969 1.886719 -0.660156 C 1.914062 -0.777344 1.925781 -0.910156 1.925781 -1.058594 C 1.925781 -1.164062 1.914062 -1.273438 1.890625 -1.382812 C 1.867188 -1.496094 1.832031 -1.59375 1.785156 -1.675781 C 1.734375 -1.757812 1.671875 -1.828125 1.589844 -1.878906 C 1.511719 -1.929688 1.414062 -1.957031 1.304688 -1.957031 C 1.195312 -1.957031 1.105469 -1.933594 1.03125 -1.886719 C 0.957031 -1.839844 0.890625 -1.785156 0.835938 -1.71875 L 0.835938 -0.453125 C 0.847656 -0.414062 0.871094 -0.375 0.898438 -0.332031 C 0.929688 -0.289062 0.960938 -0.253906 1 -0.222656 C 1.042969 -0.1875 1.089844 -0.15625 1.144531 -0.136719 C 1.195312 -0.113281 1.257812 -0.101562 1.335938 -0.101562 C 1.414062 -0.101562 1.492188 -0.125 1.570312 -0.164062 C 1.644531 -0.207031 1.707031 -0.269531 1.757812 -0.347656 Z "/>
</g>
<g id="glyph-1-9">
<path d="M 1.476562 -0.09375 C 1.382812 -0.0546875 1.292969 -0.0195312 1.210938 0.00390625 C 1.125 0.03125 1.023438 0.046875 0.902344 0.046875 C 0.722656 0.046875 0.597656 0 0.523438 -0.0898438 C 0.449219 -0.179688 0.414062 -0.308594 0.414062 -0.472656 L 0.414062 -1.921875 L 0.0273438 -1.921875 L 0.0273438 -2.132812 L 0.421875 -2.132812 L 0.421875 -2.796875 L 0.816406 -2.796875 L 0.816406 -2.132812 L 1.433594 -2.132812 L 1.433594 -1.921875 L 0.824219 -1.921875 L 0.824219 -0.726562 C 0.824219 -0.636719 0.824219 -0.5625 0.832031 -0.503906 C 0.839844 -0.441406 0.855469 -0.390625 0.878906 -0.34375 C 0.902344 -0.304688 0.9375 -0.269531 0.984375 -0.25 C 1.027344 -0.226562 1.089844 -0.21875 1.167969 -0.21875 C 1.207031 -0.21875 1.257812 -0.21875 1.328125 -0.226562 C 1.398438 -0.234375 1.449219 -0.242188 1.476562 -0.25 Z "/>
</g>
<g id="glyph-1-10">
<path d="M 1.195312 0 L 0.160156 0 L 0.160156 -0.144531 C 0.195312 -0.144531 0.226562 -0.148438 0.261719 -0.152344 C 0.300781 -0.15625 0.328125 -0.160156 0.355469 -0.167969 C 0.394531 -0.183594 0.425781 -0.203125 0.445312 -0.238281 C 0.464844 -0.269531 0.476562 -0.3125 0.476562 -0.363281 L 0.476562 -1.683594 C 0.476562 -1.730469 0.464844 -1.773438 0.445312 -1.8125 C 0.421875 -1.847656 0.394531 -1.882812 0.355469 -1.90625 C 0.328125 -1.925781 0.289062 -1.941406 0.238281 -1.953125 C 0.183594 -1.964844 0.136719 -1.972656 0.09375 -1.976562 L 0.09375 -2.117188 L 0.847656 -2.164062 L 0.878906 -2.136719 L 0.878906 -0.390625 C 0.878906 -0.339844 0.886719 -0.296875 0.90625 -0.265625 C 0.925781 -0.230469 0.957031 -0.207031 1 -0.191406 C 1.03125 -0.179688 1.0625 -0.167969 1.09375 -0.160156 C 1.121094 -0.152344 1.15625 -0.144531 1.195312 -0.144531 L 1.195312 0 M 0.921875 -3.007812 C 0.921875 -2.925781 0.894531 -2.855469 0.839844 -2.792969 C 0.785156 -2.730469 0.71875 -2.703125 0.640625 -2.703125 C 0.566406 -2.703125 0.503906 -2.730469 0.449219 -2.789062 C 0.394531 -2.847656 0.367188 -2.914062 0.367188 -2.988281 C 0.367188 -3.070312 0.394531 -3.140625 0.449219 -3.199219 C 0.503906 -3.257812 0.566406 -3.289062 0.640625 -3.289062 C 0.722656 -3.289062 0.789062 -3.257812 0.84375 -3.203125 C 0.894531 -3.148438 0.921875 -3.082031 0.921875 -3.007812 Z "/>
</g>
<g id="glyph-1-11">
<path d="M 1.160156 0 L 0.113281 0 L 0.113281 -0.144531 C 0.148438 -0.144531 0.183594 -0.148438 0.222656 -0.152344 C 0.257812 -0.15625 0.289062 -0.160156 0.316406 -0.167969 C 0.355469 -0.183594 0.386719 -0.207031 0.40625 -0.238281 C 0.425781 -0.269531 0.4375 -0.3125 0.4375 -0.363281 L 0.4375 -2.84375 C 0.4375 -2.898438 0.425781 -2.945312 0.402344 -2.992188 C 0.378906 -3.035156 0.351562 -3.074219 0.316406 -3.097656 C 0.289062 -3.117188 0.242188 -3.132812 0.171875 -3.144531 C 0.101562 -3.160156 0.046875 -3.167969 0.00390625 -3.171875 L 0.00390625 -3.3125 L 0.808594 -3.359375 L 0.839844 -3.328125 L 0.839844 -0.390625 C 0.839844 -0.339844 0.847656 -0.296875 0.867188 -0.265625 C 0.886719 -0.234375 0.917969 -0.207031 0.960938 -0.191406 C 0.992188 -0.175781 1.023438 -0.164062 1.054688 -0.160156 C 1.085938 -0.152344 1.121094 -0.144531 1.160156 -0.144531 Z "/>
</g>
<g id="glyph-1-12">
<path d="M 3.816406 0 L 2.773438 0 L 2.773438 -0.144531 C 2.808594 -0.144531 2.84375 -0.148438 2.875 -0.152344 C 2.910156 -0.15625 2.941406 -0.160156 2.964844 -0.167969 C 3.007812 -0.183594 3.035156 -0.203125 3.054688 -0.238281 C 3.074219 -0.269531 3.085938 -0.3125 3.085938 -0.363281 L 3.085938 -1.46875 C 3.085938 -1.621094 3.050781 -1.734375 2.984375 -1.816406 C 2.914062 -1.898438 2.828125 -1.941406 2.726562 -1.941406 C 2.65625 -1.941406 2.589844 -1.929688 2.527344 -1.90625 C 2.464844 -1.886719 2.40625 -1.855469 2.355469 -1.816406 C 2.3125 -1.785156 2.277344 -1.75 2.25 -1.714844 C 2.222656 -1.675781 2.199219 -1.644531 2.183594 -1.621094 L 2.183594 -0.386719 C 2.183594 -0.335938 2.195312 -0.292969 2.210938 -0.261719 C 2.226562 -0.230469 2.257812 -0.203125 2.300781 -0.1875 C 2.332031 -0.171875 2.363281 -0.164062 2.390625 -0.15625 C 2.417969 -0.152344 2.453125 -0.144531 2.496094 -0.144531 L 2.496094 0 L 1.476562 0 L 1.476562 -0.144531 C 1.507812 -0.144531 1.539062 -0.148438 1.570312 -0.152344 C 1.601562 -0.15625 1.632812 -0.160156 1.65625 -0.167969 C 1.699219 -0.183594 1.726562 -0.203125 1.746094 -0.238281 C 1.765625 -0.269531 1.777344 -0.3125 1.777344 -0.363281 L 1.777344 -1.46875 C 1.777344 -1.621094 1.742188 -1.734375 1.675781 -1.816406 C 1.605469 -1.898438 1.519531 -1.941406 1.417969 -1.941406 C 1.34375 -1.941406 1.277344 -1.929688 1.214844 -1.90625 C 1.152344 -1.882812 1.097656 -1.851562 1.042969 -1.8125 C 1.003906 -1.78125 0.964844 -1.746094 0.9375 -1.707031 C 0.910156 -1.667969 0.886719 -1.636719 0.871094 -1.617188 L 0.871094 -0.390625 C 0.871094 -0.339844 0.882812 -0.300781 0.902344 -0.265625 C 0.921875 -0.234375 0.953125 -0.207031 0.992188 -0.191406 C 1.023438 -0.175781 1.054688 -0.164062 1.085938 -0.160156 C 1.117188 -0.152344 1.15625 -0.144531 1.195312 -0.144531 L 1.195312 0 L 0.152344 0 L 0.152344 -0.144531 C 0.1875 -0.144531 0.222656 -0.148438 0.257812 -0.152344 C 0.292969 -0.15625 0.324219 -0.160156 0.347656 -0.167969 C 0.390625 -0.183594 0.417969 -0.203125 0.4375 -0.238281 C 0.457031 -0.269531 0.46875 -0.3125 0.46875 -0.363281 L 0.46875 -1.691406 C 0.46875 -1.738281 0.457031 -1.78125 0.4375 -1.816406 C 0.417969 -1.855469 0.386719 -1.886719 0.347656 -1.910156 C 0.320312 -1.929688 0.289062 -1.941406 0.246094 -1.953125 C 0.207031 -1.964844 0.164062 -1.972656 0.121094 -1.976562 L 0.121094 -2.117188 L 0.835938 -2.164062 L 0.867188 -2.136719 L 0.867188 -1.828125 L 0.882812 -1.828125 C 0.917969 -1.867188 0.964844 -1.90625 1.015625 -1.957031 C 1.066406 -2.007812 1.117188 -2.046875 1.160156 -2.078125 C 1.210938 -2.113281 1.273438 -2.140625 1.351562 -2.164062 C 1.425781 -2.1875 1.507812 -2.199219 1.597656 -2.199219 C 1.734375 -2.199219 1.855469 -2.160156 1.957031 -2.085938 C 2.054688 -2.011719 2.125 -1.921875 2.171875 -1.816406 C 2.222656 -1.867188 2.269531 -1.910156 2.308594 -1.949219 C 2.347656 -1.988281 2.398438 -2.027344 2.464844 -2.074219 C 2.519531 -2.109375 2.585938 -2.140625 2.660156 -2.164062 C 2.734375 -2.1875 2.816406 -2.199219 2.90625 -2.199219 C 3.085938 -2.199219 3.230469 -2.140625 3.335938 -2.019531 C 3.441406 -1.902344 3.492188 -1.71875 3.492188 -1.472656 L 3.492188 -0.386719 C 3.492188 -0.335938 3.503906 -0.292969 3.519531 -0.261719 C 3.535156 -0.230469 3.566406 -0.203125 3.609375 -0.1875 C 3.640625 -0.171875 3.675781 -0.164062 3.707031 -0.15625 C 3.738281 -0.152344 3.777344 -0.144531 3.816406 -0.144531 Z "/>
</g>
<g id="glyph-1-13">
<path d="M 2.484375 0 L 1.433594 0 L 1.433594 -0.144531 C 1.464844 -0.144531 1.503906 -0.148438 1.542969 -0.152344 C 1.582031 -0.15625 1.617188 -0.160156 1.644531 -0.167969 C 1.683594 -0.183594 1.714844 -0.203125 1.734375 -0.238281 C 1.753906 -0.269531 1.761719 -0.3125 1.761719 -0.363281 L 1.761719 -1.464844 C 1.761719 -1.617188 1.726562 -1.734375 1.65625 -1.816406 C 1.582031 -1.898438 1.496094 -1.941406 1.390625 -1.941406 C 1.316406 -1.941406 1.246094 -1.929688 1.183594 -1.902344 C 1.117188 -1.878906 1.058594 -1.851562 1.007812 -1.816406 C 0.960938 -1.78125 0.921875 -1.742188 0.894531 -1.707031 C 0.871094 -1.671875 0.851562 -1.640625 0.835938 -1.617188 L 0.835938 -0.386719 C 0.835938 -0.335938 0.84375 -0.296875 0.863281 -0.265625 C 0.882812 -0.234375 0.914062 -0.207031 0.953125 -0.191406 C 0.988281 -0.175781 1.019531 -0.164062 1.054688 -0.160156 C 1.085938 -0.152344 1.125 -0.144531 1.164062 -0.144531 L 1.164062 0 L 0.117188 0 L 0.117188 -0.144531 C 0.148438 -0.144531 0.183594 -0.148438 0.21875 -0.152344 C 0.257812 -0.15625 0.285156 -0.160156 0.3125 -0.167969 C 0.351562 -0.183594 0.382812 -0.207031 0.402344 -0.238281 C 0.421875 -0.269531 0.433594 -0.3125 0.433594 -0.363281 L 0.433594 -2.859375 C 0.433594 -2.90625 0.421875 -2.957031 0.398438 -3.003906 C 0.375 -3.054688 0.347656 -3.089844 0.308594 -3.117188 C 0.285156 -3.136719 0.238281 -3.148438 0.171875 -3.15625 C 0.105469 -3.164062 0.0546875 -3.167969 0.0117188 -3.171875 L 0.0117188 -3.3125 L 0.804688 -3.359375 L 0.835938 -3.328125 L 0.835938 -1.832031 L 0.84375 -1.832031 C 0.890625 -1.882812 0.933594 -1.921875 0.972656 -1.960938 C 1.011719 -1.996094 1.066406 -2.035156 1.128906 -2.078125 C 1.183594 -2.113281 1.25 -2.140625 1.324219 -2.164062 C 1.398438 -2.1875 1.480469 -2.199219 1.574219 -2.199219 C 1.765625 -2.199219 1.914062 -2.136719 2.015625 -2.015625 C 2.117188 -1.894531 2.171875 -1.722656 2.171875 -1.496094 L 2.171875 -0.382812 C 2.171875 -0.332031 2.179688 -0.289062 2.195312 -0.257812 C 2.214844 -0.226562 2.246094 -0.203125 2.289062 -0.1875 C 2.320312 -0.171875 2.351562 -0.164062 2.378906 -0.15625 C 2.40625 -0.152344 2.441406 -0.144531 2.484375 -0.144531 Z "/>
</g>
<g id="glyph-1-14">
<path d="M 2.683594 -0.914062 L 2.617188 0 L 0.210938 0 L 0.210938 -0.152344 C 0.246094 -0.15625 0.296875 -0.160156 0.363281 -0.167969 C 0.429688 -0.175781 0.476562 -0.1875 0.5 -0.199219 C 0.542969 -0.214844 0.574219 -0.242188 0.59375 -0.28125 C 0.613281 -0.316406 0.625 -0.363281 0.625 -0.417969 L 0.625 -2.625 C 0.625 -2.671875 0.617188 -2.714844 0.601562 -2.753906 C 0.582031 -2.792969 0.550781 -2.820312 0.5 -2.84375 C 0.46875 -2.863281 0.421875 -2.878906 0.359375 -2.894531 C 0.300781 -2.914062 0.25 -2.921875 0.210938 -2.925781 L 0.210938 -3.078125 L 1.511719 -3.078125 L 1.511719 -2.925781 C 1.472656 -2.921875 1.417969 -2.917969 1.355469 -2.902344 C 1.289062 -2.890625 1.242188 -2.878906 1.214844 -2.867188 C 1.164062 -2.851562 1.132812 -2.820312 1.113281 -2.78125 C 1.097656 -2.738281 1.085938 -2.691406 1.085938 -2.644531 L 1.085938 -0.578125 C 1.085938 -0.480469 1.09375 -0.40625 1.101562 -0.355469 C 1.109375 -0.300781 1.132812 -0.261719 1.167969 -0.230469 C 1.199219 -0.207031 1.25 -0.1875 1.316406 -0.179688 C 1.382812 -0.171875 1.472656 -0.167969 1.59375 -0.167969 C 1.644531 -0.167969 1.703125 -0.171875 1.761719 -0.171875 C 1.816406 -0.175781 1.871094 -0.183594 1.925781 -0.191406 C 1.976562 -0.199219 2.023438 -0.210938 2.066406 -0.226562 C 2.105469 -0.242188 2.140625 -0.261719 2.160156 -0.285156 C 2.21875 -0.351562 2.289062 -0.453125 2.367188 -0.585938 C 2.445312 -0.722656 2.5 -0.832031 2.53125 -0.914062 Z "/>
</g>
<g id="glyph-1-15">
<path d="M 1.753906 -1.164062 C 1.65625 -1.15625 1.5625 -1.144531 1.476562 -1.125 C 1.390625 -1.105469 1.320312 -1.074219 1.261719 -1.035156 C 1.203125 -0.992188 1.160156 -0.9375 1.128906 -0.867188 C 1.097656 -0.800781 1.082031 -0.714844 1.082031 -0.609375 C 1.082031 -0.53125 1.089844 -0.441406 1.097656 -0.339844 C 1.109375 -0.238281 1.117188 -0.144531 1.117188 -0.0585938 C 1.117188 0.105469 1.09375 0.234375 1.050781 0.335938 C 1.007812 0.433594 0.945312 0.511719 0.863281 0.574219 C 0.78125 0.628906 0.679688 0.667969 0.554688 0.691406 C 0.433594 0.710938 0.296875 0.722656 0.144531 0.722656 L 0.144531 0.550781 C 0.203125 0.546875 0.269531 0.539062 0.34375 0.53125 C 0.414062 0.519531 0.476562 0.5 0.527344 0.46875 C 0.585938 0.433594 0.628906 0.386719 0.65625 0.324219 C 0.6875 0.257812 0.703125 0.175781 0.703125 0.0742188 L 0.703125 -0.433594 C 0.703125 -0.585938 0.722656 -0.710938 0.757812 -0.8125 C 0.796875 -0.910156 0.851562 -0.992188 0.917969 -1.050781 C 0.984375 -1.113281 1.0625 -1.15625 1.15625 -1.191406 C 1.25 -1.222656 1.347656 -1.25 1.449219 -1.273438 L 1.449219 -1.339844 C 1.339844 -1.359375 1.242188 -1.386719 1.152344 -1.421875 C 1.0625 -1.453125 0.984375 -1.5 0.917969 -1.558594 C 0.847656 -1.621094 0.792969 -1.703125 0.757812 -1.800781 C 0.722656 -1.902344 0.703125 -2.027344 0.703125 -2.179688 L 0.703125 -2.6875 C 0.703125 -2.792969 0.6875 -2.878906 0.65625 -2.941406 C 0.621094 -3.003906 0.578125 -3.050781 0.527344 -3.078125 C 0.484375 -3.105469 0.421875 -3.121094 0.347656 -3.132812 C 0.269531 -3.148438 0.203125 -3.15625 0.144531 -3.15625 L 0.144531 -3.335938 C 0.292969 -3.335938 0.429688 -3.324219 0.554688 -3.300781 C 0.675781 -3.277344 0.777344 -3.238281 0.863281 -3.179688 C 0.945312 -3.117188 1.007812 -3.035156 1.050781 -2.933594 C 1.09375 -2.832031 1.117188 -2.703125 1.117188 -2.554688 C 1.117188 -2.46875 1.109375 -2.375 1.097656 -2.273438 C 1.089844 -2.175781 1.082031 -2.082031 1.082031 -2 C 1.082031 -1.902344 1.097656 -1.820312 1.125 -1.75 C 1.152344 -1.679688 1.199219 -1.625 1.261719 -1.578125 C 1.3125 -1.542969 1.386719 -1.511719 1.472656 -1.492188 C 1.558594 -1.46875 1.652344 -1.453125 1.753906 -1.445312 Z "/>
</g>
<g id="glyph-1-16">
<path d="M 4.402344 -2.925781 C 4.363281 -2.921875 4.324219 -2.914062 4.273438 -2.898438 C 4.226562 -2.886719 4.183594 -2.863281 4.140625 -2.839844 C 4.089844 -2.808594 4.050781 -2.773438 4.019531 -2.730469 C 3.988281 -2.691406 3.960938 -2.632812 3.9375 -2.558594 C 3.835938 -2.222656 3.714844 -1.832031 3.582031 -1.386719 C 3.445312 -0.941406 3.296875 -0.464844 3.140625 0.0390625 L 2.941406 0.0390625 L 2.164062 -2.332031 L 1.355469 0.0390625 L 1.164062 0.0390625 C 1.019531 -0.46875 0.871094 -0.992188 0.71875 -1.539062 C 0.566406 -2.082031 0.460938 -2.445312 0.410156 -2.632812 C 0.398438 -2.675781 0.378906 -2.714844 0.351562 -2.75 C 0.328125 -2.785156 0.292969 -2.816406 0.25 -2.847656 C 0.214844 -2.871094 0.171875 -2.890625 0.121094 -2.902344 C 0.0742188 -2.914062 0.03125 -2.921875 -0.0078125 -2.925781 L -0.0078125 -3.078125 L 1.246094 -3.078125 L 1.246094 -2.925781 C 1.136719 -2.917969 1.042969 -2.910156 0.964844 -2.890625 C 0.886719 -2.875 0.847656 -2.851562 0.847656 -2.8125 C 0.847656 -2.796875 0.851562 -2.777344 0.855469 -2.753906 C 0.859375 -2.730469 0.863281 -2.710938 0.867188 -2.695312 C 0.898438 -2.570312 0.957031 -2.359375 1.042969 -2.066406 C 1.128906 -1.773438 1.253906 -1.332031 1.417969 -0.746094 L 2.1875 -3.035156 L 2.402344 -3.035156 L 3.175781 -0.699219 C 3.28125 -1.058594 3.371094 -1.371094 3.445312 -1.640625 C 3.519531 -1.910156 3.582031 -2.140625 3.632812 -2.332031 C 3.667969 -2.464844 3.691406 -2.558594 3.699219 -2.605469 C 3.707031 -2.65625 3.710938 -2.699219 3.710938 -2.734375 C 3.710938 -2.785156 3.675781 -2.824219 3.609375 -2.859375 C 3.542969 -2.890625 3.433594 -2.914062 3.285156 -2.925781 L 3.285156 -3.078125 L 4.402344 -3.078125 Z "/>
</g>
</g>
</defs>
<g fill="rgb(73.333333%, 73.333333%, 73.333333%)" fill-opacity="1">
<use xlink:href="#glyph-0-0" x="30" y="24.363281"/>
<use xlink:href="#glyph-0-1" x="34" y="24.363281"/>
</g>
<g fill="rgb(73.333333%, 73.333333%, 73.333333%)" fill-opacity="1">
<use xlink:href="#glyph-1-0" x="38" y="24.074219"/>
<use xlink:href="#glyph-1-1" x="39" y="24.074219"/>
<use xlink:href="#glyph-1-2" x="42" y="24.074219"/>
</g>
<g fill="rgb(73.333333%, 73.333333%, 73.333333%)" fill-opacity="1">
<use xlink:href="#glyph-1-3" x="44" y="24.074219"/>
<use xlink:href="#glyph-1-4" x="45" y="24.074219"/>
<use xlink:href="#glyph-1-5" x="47" y="24.074219"/>
<use xlink:href="#glyph-1-6" x="49" y="24.074219"/>
<use xlink:href="#glyph-1-7" x="51" y="24.074219"/>
<use xlink:href="#glyph-1-2" x="53" y="24.074219"/>
<use xlink:href="#glyph-1-8" x="55" y="24.074219"/>
<use xlink:href="#glyph-1-5" x="58" y="24.074219"/>
<use xlink:href="#glyph-1-4" x="60" y="24.074219"/>
<use xlink:href="#glyph-1-9" x="62" y="24.074219"/>
<use xlink:href="#glyph-1-10" x="64" y="24.074219"/>
<use xlink:href="#glyph-1-5" x="65" y="24.074219"/>
<use xlink:href="#glyph-1-11" x="67" y="24.074219"/>
<use xlink:href="#glyph-1-0" x="68" y="24.074219"/>
<use xlink:href="#glyph-1-2" x="69" y="24.074219"/>
<use xlink:href="#glyph-1-12" x="71" y="24.074219"/>
<use xlink:href="#glyph-1-5" x="75" y="24.074219"/>
<use xlink:href="#glyph-1-9" x="77" y="24.074219"/>
<use xlink:href="#glyph-1-13" x="79" y="24.074219"/>
<use xlink:href="#glyph-1-6" x="82" y="24.074219"/>
<use xlink:href="#glyph-1-5" x="84" y="24.074219"/>
<use xlink:href="#glyph-1-11" x="86" y="24.074219"/>
<use xlink:href="#glyph-1-7" x="87" y="24.074219"/>
<use xlink:href="#glyph-1-14" x="89" y="24.074219"/>
<use xlink:href="#glyph-1-15" x="92" y="24.074219"/>
<use xlink:href="#glyph-1-15" x="94" y="24.074219"/>
<use xlink:href="#glyph-1-7" x="96" y="24.074219"/>
<use xlink:href="#glyph-1-2" x="98" y="24.074219"/>
<use xlink:href="#glyph-1-8" x="100" y="24.074219"/>
<use xlink:href="#glyph-1-5" x="103" y="24.074219"/>
<use xlink:href="#glyph-1-4" x="105" y="24.074219"/>
<use xlink:href="#glyph-1-9" x="107" y="24.074219"/>
<use xlink:href="#glyph-1-10" x="109" y="24.074219"/>
<use xlink:href="#glyph-1-5" x="110" y="24.074219"/>
<use xlink:href="#glyph-1-11" x="112" y="24.074219"/>
<use xlink:href="#glyph-1-0" x="113" y="24.074219"/>
<use xlink:href="#glyph-1-16" x="114" y="24.074219"/>
<use xlink:href="#glyph-1-15" x="118" y="24.074219"/>
<use xlink:href="#glyph-1-1" x="120" y="24.074219"/>
</g>
</svg>
