<?xml version="1.0" encoding="UTF-8"?>
<svg xmlns="http://www.w3.org/2000/svg" xmlns:xlink="http://www.w3.org/1999/xlink" width="854" height="480" viewBox="0 0 854 480">
<defs>
<g>
<g id="glyph-0-0">
<path d="M 4.796875 -4.515625 C 4.609375 -4.023438 4.421875 -3.515625 4.230469 -2.992188 L 4.964844 -2.992188 C 4.964844 -3.441406 4.957031 -3.808594 4.9375 -4.089844 L 5.585938 -3.808594 L 5.359375 -3.582031 L 5.359375 -2.992188 L 5.839844 -2.992188 L 6.179688 -3.300781 L 6.660156 -2.820312 L 5.359375 -2.820312 L 5.359375 -1.722656 L 5.980469 -1.722656 L 6.347656 -2.058594 L 6.828125 -1.550781 L 5.359375 -1.550781 C 5.359375 -0.949219 5.371094 -0.46875 5.390625 -0.113281 L 4.9375 0.0546875 C 4.957031 -0.375 4.964844 -0.914062 4.964844 -1.550781 L 4.457031 -1.550781 C 4.214844 -1.550781 3.988281 -1.523438 3.78125 -1.46875 L 3.527344 -1.722656 L 4.964844 -1.722656 L 4.964844 -2.820312 L 4.203125 -2.820312 L 4.007812 -2.59375 L 3.640625 -2.992188 L 3.894531 -3.132812 C 4.023438 -3.433594 4.195312 -3.894531 4.402344 -4.515625 C 4.175781 -4.515625 3.960938 -4.484375 3.753906 -4.429688 L 3.5 -4.683594 L 4.457031 -4.683594 C 4.609375 -5.210938 4.703125 -5.613281 4.738281 -5.898438 L 5.332031 -5.558594 L 5.105469 -5.417969 C 5.03125 -5.210938 4.945312 -4.964844 4.851562 -4.683594 L 5.953125 -4.683594 L 6.292969 -5.023438 L 6.742188 -4.515625 L 4.796875 -4.515625 M 2.738281 -5.164062 C 3.113281 -4.84375 3.328125 -4.628906 3.386719 -4.515625 C 3.441406 -4.402344 3.46875 -4.316406 3.46875 -4.261719 C 3.46875 -4.148438 3.429688 -4.046875 3.34375 -3.964844 C 3.257812 -3.878906 3.199219 -3.835938 3.160156 -3.835938 C 3.101562 -3.835938 3.066406 -3.921875 3.046875 -4.089844 C 3.007812 -4.355469 2.878906 -4.691406 2.652344 -5.105469 L 2.738281 -5.164062 M 2.117188 0.167969 C 2.492188 -0.0742188 2.792969 -0.261719 3.019531 -0.394531 L 3.019531 -2.679688 C 2.847656 -2.679688 2.660156 -2.652344 2.453125 -2.59375 L 2.199219 -2.847656 L 2.992188 -2.847656 L 3.1875 -3.101562 L 3.609375 -2.738281 L 3.386719 -2.566406 L 3.386719 -0.421875 C 3.609375 -0.179688 3.894531 -0.0195312 4.230469 0.0546875 C 4.570312 0.132812 4.910156 0.167969 5.246094 0.167969 C 5.660156 0.167969 6.207031 0.132812 6.882812 0.0546875 L 6.882812 0.167969 C 6.601562 0.246094 6.453125 0.386719 6.433594 0.59375 C 5.285156 0.59375 4.546875 0.523438 4.21875 0.382812 C 3.890625 0.238281 3.640625 0.0742188 3.46875 -0.113281 C 3.394531 -0.1875 3.320312 -0.226562 3.246094 -0.226562 C 3.132812 -0.226562 3 -0.144531 2.847656 0.015625 C 2.699219 0.175781 2.578125 0.339844 2.484375 0.507812 L 2.117188 0.167969 M 1.664062 -0.453125 L 2.59375 -0.902344 L 2.652344 -0.816406 C 1.992188 -0.347656 1.617188 0.0195312 1.523438 0.28125 L 1.15625 -0.113281 C 1.25 -0.207031 1.289062 -0.347656 1.269531 -0.535156 L 1.269531 -2.058594 L 1.214844 -2.058594 C 0.96875 -2.058594 0.742188 -2.03125 0.535156 -1.976562 L 0.28125 -2.230469 L 1.269531 -2.230469 L 1.269531 -3.355469 L 0.707031 -3.355469 C 0.574219 -3.1875 0.441406 -3.046875 0.308594 -2.933594 L 0.253906 -2.992188 C 0.667969 -3.667969 1.015625 -4.609375 1.296875 -5.8125 L 1.863281 -5.472656 C 1.75 -5.398438 1.65625 -5.285156 1.578125 -5.136719 C 1.503906 -4.984375 1.429688 -4.816406 1.355469 -4.628906 L 1.976562 -4.628906 L 2.3125 -5.023438 L 2.792969 -4.457031 L 1.296875 -4.457031 C 1.128906 -4.121094 0.960938 -3.808594 0.789062 -3.527344 L 1.890625 -3.527344 L 2.230469 -3.835938 L 2.652344 -3.355469 L 1.664062 -3.355469 L 1.664062 -2.230469 L 2.03125 -2.230469 L 2.339844 -2.539062 L 2.765625 -2.058594 L 1.664062 -2.058594 Z "/>
</g>
<g id="glyph-0-1">
<path d="M 2.484375 -0.648438 L 4.121094 -1.015625 L 4.148438 -0.902344 C 3 -0.546875 2.175781 -0.277344 1.679688 -0.0976562 C 1.179688 0.078125 0.894531 0.226562 0.816406 0.339844 L 0.421875 -0.199219 C 1.023438 -0.308594 1.578125 -0.421875 2.085938 -0.535156 L 2.085938 -2.707031 L 1.609375 -2.707031 C 1.363281 -2.707031 1.136719 -2.679688 0.929688 -2.625 L 0.675781 -2.878906 L 2.960938 -2.878906 L 3.328125 -3.246094 L 3.867188 -2.707031 L 2.484375 -2.707031 L 2.484375 -0.648438 M 4.992188 -5.613281 C 5.351562 -5.484375 5.609375 -5.367188 5.769531 -5.261719 C 5.929688 -5.160156 6.003906 -5.039062 5.996094 -4.910156 C 5.984375 -4.777344 5.953125 -4.683594 5.898438 -4.628906 C 5.839844 -4.570312 5.792969 -4.542969 5.753906 -4.542969 C 5.679688 -4.542969 5.613281 -4.617188 5.558594 -4.769531 C 5.445312 -4.992188 5.238281 -5.246094 4.9375 -5.53125 L 4.992188 -5.613281 M 4.375 -5.390625 C 4.375 -4.957031 4.382812 -4.578125 4.402344 -4.261719 L 5.699219 -4.261719 L 6.152344 -4.710938 L 6.769531 -4.089844 L 4.402344 -4.089844 C 4.476562 -3.132812 4.601562 -2.394531 4.78125 -1.875 C 4.960938 -1.359375 5.167969 -0.960938 5.402344 -0.675781 C 5.636719 -0.394531 5.945312 -0.179688 6.320312 -0.0273438 C 6.375 -0.40625 6.441406 -0.855469 6.515625 -1.382812 L 6.660156 -1.382812 C 6.640625 -0.648438 6.652344 -0.164062 6.699219 0.0703125 C 6.746094 0.304688 6.808594 0.480469 6.882812 0.59375 C 6.921875 0.648438 6.902344 0.675781 6.828125 0.675781 C 6.753906 0.675781 6.539062 0.617188 6.191406 0.492188 C 5.84375 0.371094 5.511719 0.136719 5.191406 -0.210938 C 4.871094 -0.558594 4.609375 -1.042969 4.402344 -1.664062 C 4.195312 -2.285156 4.0625 -3.09375 4.007812 -4.089844 L 1.523438 -4.089844 C 1.277344 -4.089844 1.054688 -4.0625 0.847656 -4.007812 L 0.59375 -4.261719 L 3.976562 -4.261719 C 3.960938 -4.804688 3.941406 -5.351562 3.921875 -5.898438 L 4.628906 -5.585938 Z "/>
</g>
<g id="glyph-0-2">
<path d="M 4.289062 -4.34375 C 4.289062 -5.152344 4.277344 -5.691406 4.261719 -5.953125 L 4.9375 -5.613281 L 4.65625 -5.332031 L 4.65625 -4.34375 L 5.753906 -4.34375 L 6.066406 -4.65625 L 6.515625 -4.175781 L 4.65625 -4.175781 L 4.65625 -2.652344 L 6.152344 -2.652344 L 6.488281 -2.992188 L 6.96875 -2.484375 L 4.316406 -2.484375 L 4.769531 -2.171875 C 4.597656 -2.097656 4.421875 -1.917969 4.230469 -1.636719 C 4.042969 -1.355469 3.609375 -0.855469 2.933594 -0.140625 L 5.898438 -0.339844 C 5.652344 -0.675781 5.390625 -1.007812 5.105469 -1.324219 L 5.164062 -1.410156 C 5.5 -1.167969 5.769531 -0.96875 5.96875 -0.816406 C 6.164062 -0.667969 6.324219 -0.523438 6.445312 -0.382812 C 6.570312 -0.238281 6.628906 -0.113281 6.628906 0 C 6.628906 0.113281 6.59375 0.226562 6.515625 0.339844 C 6.441406 0.453125 6.394531 0.507812 6.375 0.507812 C 6.320312 0.507812 6.273438 0.453125 6.234375 0.339844 C 6.160156 0.152344 6.074219 -0.0273438 5.980469 -0.199219 C 4.929688 -0.0859375 4.128906 0.0390625 3.582031 0.167969 C 3.039062 0.300781 2.726562 0.414062 2.652344 0.507812 L 2.371094 -0.140625 C 2.613281 -0.140625 2.9375 -0.421875 3.34375 -0.988281 C 3.746094 -1.550781 4.023438 -2.050781 4.175781 -2.484375 L 3.132812 -2.484375 C 2.886719 -2.484375 2.660156 -2.453125 2.453125 -2.398438 L 2.199219 -2.652344 L 4.289062 -2.652344 L 4.289062 -4.175781 L 3.667969 -4.175781 C 3.421875 -4.175781 3.199219 -4.148438 2.992188 -4.089844 L 2.738281 -4.34375 L 4.289062 -4.34375 M 2.679688 -4.683594 C 1.945312 -2.691406 1.546875 -1.574219 1.480469 -1.339844 C 1.414062 -1.105469 1.386719 -0.816406 1.398438 -0.480469 C 1.40625 -0.140625 1.421875 0.09375 1.4375 0.226562 C 1.4375 0.300781 1.390625 0.339844 1.296875 0.339844 C 1.222656 0.339844 1.128906 0.320312 1.015625 0.28125 C 0.902344 0.246094 0.847656 0.160156 0.847656 0.0273438 C 0.847656 -0.0664062 0.875 -0.207031 0.929688 -0.394531 C 0.988281 -0.582031 1.015625 -0.734375 1.015625 -0.847656 C 1.015625 -0.976562 0.972656 -1.082031 0.890625 -1.15625 C 0.804688 -1.230469 0.621094 -1.308594 0.339844 -1.382812 L 0.339844 -1.496094 C 0.675781 -1.457031 0.890625 -1.445312 0.972656 -1.453125 C 1.058594 -1.460938 1.152344 -1.546875 1.253906 -1.707031 C 1.359375 -1.867188 1.796875 -2.867188 2.566406 -4.710938 L 2.679688 -4.683594 M 0.367188 -4.0625 C 1.023438 -3.722656 1.355469 -3.445312 1.355469 -3.230469 C 1.355469 -3.015625 1.300781 -2.867188 1.199219 -2.792969 C 1.09375 -2.71875 1.007812 -2.8125 0.929688 -3.074219 C 0.835938 -3.320312 0.628906 -3.621094 0.308594 -3.976562 L 0.367188 -4.0625 M 1.015625 -5.699219 C 1.542969 -5.4375 1.828125 -5.238281 1.875 -5.105469 C 1.921875 -4.976562 1.945312 -4.882812 1.945312 -4.824219 C 1.945312 -4.730469 1.914062 -4.644531 1.847656 -4.570312 C 1.78125 -4.496094 1.730469 -4.457031 1.691406 -4.457031 C 1.636719 -4.457031 1.578125 -4.550781 1.523438 -4.738281 C 1.429688 -4.984375 1.242188 -5.277344 0.960938 -5.613281 Z "/>
</g>
<g id="glyph-0-3">
<path d="M 3.753906 -2.425781 C 3.753906 -2.085938 3.761719 -1.796875 3.78125 -1.550781 L 3.386719 -1.324219 L 3.386719 -5.164062 L 1.410156 -5.164062 L 1.410156 -1.324219 L 1.015625 -1.128906 C 1.035156 -1.597656 1.042969 -2.316406 1.042969 -3.285156 C 1.042969 -4.253906 1.035156 -5.023438 1.015625 -5.585938 L 1.410156 -5.332031 L 3.355469 -5.332031 L 3.554688 -5.613281 L 3.976562 -5.277344 L 3.753906 -5.078125 L 3.753906 -2.425781 M 0.421875 0.59375 C 1.136719 0.0664062 1.601562 -0.433594 1.820312 -0.902344 C 2.035156 -1.375 2.160156 -1.847656 2.1875 -2.328125 C 2.214844 -2.808594 2.21875 -3.546875 2.199219 -4.542969 L 2.820312 -4.261719 L 2.59375 -4.0625 L 2.59375 -2.878906 C 2.613281 -2.144531 2.484375 -1.480469 2.199219 -0.890625 C 1.917969 -0.296875 1.34375 0.226562 0.480469 0.675781 L 0.421875 0.59375 M 2.566406 -1.214844 C 3.507812 -0.761719 4 -0.460938 4.046875 -0.308594 C 4.09375 -0.160156 4.121094 -0.046875 4.121094 0.0273438 C 4.121094 0.140625 4.09375 0.238281 4.046875 0.324219 C 4 0.410156 3.96875 0.453125 3.949219 0.453125 C 3.875 0.453125 3.78125 0.339844 3.667969 0.113281 C 3.480469 -0.207031 3.09375 -0.621094 2.511719 -1.128906 L 2.566406 -1.214844 M 4.683594 -0.988281 C 4.703125 -1.457031 4.710938 -2.121094 4.710938 -2.976562 C 4.710938 -3.832031 4.703125 -4.496094 4.683594 -4.964844 L 5.304688 -4.65625 L 5.078125 -4.457031 L 5.078125 -2.03125 C 5.078125 -1.675781 5.085938 -1.390625 5.105469 -1.183594 L 4.683594 -0.988281 M 4.738281 -0.0546875 C 5.117188 -0.0195312 5.414062 0 5.628906 0 C 5.84375 0 5.953125 -0.113281 5.953125 -0.339844 L 5.953125 -4.769531 C 5.953125 -5.125 5.945312 -5.492188 5.925781 -5.867188 L 6.574219 -5.558594 L 6.347656 -5.359375 L 6.347656 -0.167969 C 6.367188 0.246094 6.160156 0.535156 5.726562 0.707031 C 5.691406 0.40625 5.359375 0.1875 4.738281 0.0546875 Z "/>
</g>
<g id="glyph-0-4">
</g>
<g id="glyph-1-0">
<path d="M 2.546875 0.121094 C 2.25 0.121094 1.964844 0.0625 1.691406 -0.0546875 C 1.417969 -0.175781 1.171875 -0.34375 0.960938 -0.566406 C 0.753906 -0.785156 0.585938 -1.054688 0.460938 -1.375 C 0.335938 -1.695312 0.273438 -2.054688 0.273438 -2.453125 C 0.273438 -2.851562 0.335938 -3.214844 0.457031 -3.542969 C 0.582031 -3.867188 0.75 -4.148438 0.964844 -4.382812 C 1.179688 -4.617188 1.433594 -4.796875 1.722656 -4.921875 C 2.015625 -5.050781 2.324219 -5.113281 2.65625 -5.113281 C 2.902344 -5.113281 3.125 -5.082031 3.328125 -5.023438 C 3.527344 -4.960938 3.714844 -4.875 3.898438 -4.765625 L 4.042969 -5.003906 L 4.324219 -5.003906 L 4.355469 -3.21875 L 4.066406 -3.21875 C 4.027344 -3.394531 3.972656 -3.582031 3.898438 -3.785156 C 3.820312 -3.988281 3.734375 -4.160156 3.632812 -4.300781 C 3.519531 -4.460938 3.386719 -4.585938 3.230469 -4.679688 C 3.078125 -4.769531 2.898438 -4.8125 2.699219 -4.8125 C 2.472656 -4.8125 2.261719 -4.761719 2.0625 -4.664062 C 1.867188 -4.5625 1.699219 -4.410156 1.554688 -4.214844 C 1.417969 -4.023438 1.3125 -3.78125 1.234375 -3.488281 C 1.15625 -3.191406 1.117188 -2.863281 1.117188 -2.503906 C 1.117188 -2.183594 1.160156 -1.886719 1.238281 -1.621094 C 1.320312 -1.355469 1.4375 -1.121094 1.585938 -0.917969 C 1.738281 -0.71875 1.914062 -0.5625 2.121094 -0.449219 C 2.324219 -0.335938 2.554688 -0.277344 2.808594 -0.277344 C 3 -0.277344 3.175781 -0.308594 3.332031 -0.367188 C 3.492188 -0.429688 3.632812 -0.507812 3.75 -0.605469 C 3.867188 -0.710938 3.96875 -0.828125 4.058594 -0.960938 C 4.148438 -1.089844 4.222656 -1.234375 4.277344 -1.390625 L 4.542969 -1.261719 C 4.339844 -0.765625 4.074219 -0.410156 3.738281 -0.199219 C 3.40625 0.0117188 3.007812 0.121094 2.546875 0.121094 Z "/>
</g>
<g id="glyph-1-1">
<path d="M 4.039062 0 L 2.328125 0 L 2.328125 -0.234375 C 2.382812 -0.238281 2.441406 -0.242188 2.507812 -0.246094 C 2.574219 -0.25 2.628906 -0.261719 2.667969 -0.273438 C 2.734375 -0.296875 2.785156 -0.332031 2.816406 -0.386719 C 2.847656 -0.4375 2.863281 -0.507812 2.863281 -0.59375 L 2.863281 -2.378906 C 2.863281 -2.628906 2.804688 -2.816406 2.6875 -2.953125 C 2.570312 -3.085938 2.429688 -3.152344 2.261719 -3.152344 C 2.140625 -3.152344 2.027344 -3.132812 1.921875 -3.09375 C 1.816406 -3.054688 1.722656 -3.007812 1.640625 -2.953125 C 1.558594 -2.894531 1.5 -2.835938 1.457031 -2.777344 C 1.414062 -2.714844 1.382812 -2.667969 1.359375 -2.628906 L 1.359375 -0.628906 C 1.359375 -0.546875 1.375 -0.480469 1.40625 -0.429688 C 1.4375 -0.378906 1.484375 -0.339844 1.550781 -0.308594 C 1.601562 -0.285156 1.65625 -0.269531 1.710938 -0.257812 C 1.765625 -0.246094 1.828125 -0.238281 1.894531 -0.234375 L 1.894531 0 L 0.191406 0 L 0.191406 -0.234375 C 0.246094 -0.238281 0.300781 -0.242188 0.359375 -0.25 C 0.417969 -0.253906 0.464844 -0.261719 0.503906 -0.273438 C 0.570312 -0.296875 0.621094 -0.332031 0.652344 -0.386719 C 0.683594 -0.4375 0.703125 -0.507812 0.703125 -0.59375 L 0.703125 -4.644531 C 0.703125 -4.722656 0.683594 -4.804688 0.648438 -4.882812 C 0.609375 -4.964844 0.5625 -5.023438 0.503906 -5.0625 C 0.460938 -5.09375 0.386719 -5.117188 0.28125 -5.128906 C 0.171875 -5.140625 0.0859375 -5.152344 0.0195312 -5.15625 L 0.0195312 -5.382812 L 1.308594 -5.460938 L 1.359375 -5.40625 L 1.359375 -2.980469 L 1.371094 -2.980469 C 1.449219 -3.058594 1.519531 -3.125 1.582031 -3.1875 C 1.648438 -3.246094 1.730469 -3.308594 1.835938 -3.375 C 1.925781 -3.429688 2.03125 -3.476562 2.152344 -3.515625 C 2.273438 -3.554688 2.40625 -3.574219 2.558594 -3.574219 C 2.871094 -3.574219 3.109375 -3.472656 3.277344 -3.277344 C 3.441406 -3.082031 3.527344 -2.800781 3.527344 -2.429688 L 3.527344 -0.621094 C 3.527344 -0.539062 3.542969 -0.472656 3.570312 -0.421875 C 3.601562 -0.371094 3.648438 -0.332031 3.71875 -0.304688 C 3.773438 -0.28125 3.820312 -0.265625 3.867188 -0.253906 C 3.910156 -0.246094 3.96875 -0.238281 4.039062 -0.234375 Z "/>
</g>
<g id="glyph-1-2">
<path d="M 3.546875 -0.0625 C 3.4375 -0.0234375 3.339844 0.0078125 3.257812 0.0351562 C 3.171875 0.0585938 3.078125 0.0703125 2.972656 0.0703125 C 2.789062 0.0703125 2.644531 0.0273438 2.535156 -0.0585938 C 2.425781 -0.144531 2.355469 -0.269531 2.324219 -0.433594 L 2.304688 -0.433594 C 2.148438 -0.265625 1.984375 -0.136719 1.8125 -0.046875 C 1.636719 0.0429688 1.425781 0.0898438 1.179688 0.0898438 C 0.917969 0.0898438 0.703125 0.0078125 0.535156 -0.152344 C 0.367188 -0.3125 0.28125 -0.519531 0.28125 -0.78125 C 0.28125 -0.914062 0.300781 -1.035156 0.339844 -1.140625 C 0.375 -1.246094 0.433594 -1.339844 0.507812 -1.425781 C 0.566406 -1.496094 0.644531 -1.558594 0.742188 -1.613281 C 0.835938 -1.667969 0.925781 -1.710938 1.011719 -1.746094 C 1.117188 -1.785156 1.332031 -1.859375 1.65625 -1.96875 C 1.980469 -2.074219 2.195312 -2.160156 2.308594 -2.222656 L 2.308594 -2.570312 C 2.308594 -2.601562 2.304688 -2.660156 2.289062 -2.746094 C 2.277344 -2.835938 2.25 -2.917969 2.207031 -2.996094 C 2.160156 -3.082031 2.09375 -3.15625 2.007812 -3.222656 C 1.921875 -3.285156 1.800781 -3.320312 1.644531 -3.320312 C 1.535156 -3.320312 1.433594 -3.300781 1.34375 -3.265625 C 1.25 -3.226562 1.183594 -3.1875 1.144531 -3.148438 C 1.144531 -3.101562 1.15625 -3.03125 1.179688 -2.941406 C 1.203125 -2.847656 1.214844 -2.765625 1.214844 -2.6875 C 1.214844 -2.605469 1.175781 -2.53125 1.101562 -2.460938 C 1.027344 -2.394531 0.925781 -2.359375 0.792969 -2.359375 C 0.675781 -2.359375 0.589844 -2.402344 0.535156 -2.484375 C 0.480469 -2.566406 0.453125 -2.660156 0.453125 -2.765625 C 0.453125 -2.875 0.488281 -2.976562 0.566406 -3.074219 C 0.640625 -3.175781 0.742188 -3.261719 0.863281 -3.339844 C 0.96875 -3.40625 1.097656 -3.460938 1.25 -3.507812 C 1.398438 -3.554688 1.546875 -3.574219 1.6875 -3.574219 C 1.886719 -3.574219 2.058594 -3.5625 2.207031 -3.535156 C 2.351562 -3.507812 2.484375 -3.449219 2.605469 -3.359375 C 2.726562 -3.273438 2.816406 -3.15625 2.878906 -3.007812 C 2.941406 -2.855469 2.972656 -2.664062 2.972656 -2.429688 C 2.972656 -2.09375 2.96875 -1.796875 2.960938 -1.535156 C 2.957031 -1.277344 2.953125 -0.992188 2.953125 -0.683594 C 2.953125 -0.59375 2.96875 -0.519531 3 -0.464844 C 3.03125 -0.410156 3.078125 -0.367188 3.144531 -0.328125 C 3.179688 -0.308594 3.238281 -0.296875 3.3125 -0.292969 C 3.390625 -0.289062 3.46875 -0.289062 3.546875 -0.289062 L 3.546875 -0.0625 M 2.316406 -1.925781 C 2.117188 -1.867188 1.941406 -1.808594 1.792969 -1.753906 C 1.640625 -1.695312 1.5 -1.625 1.371094 -1.539062 C 1.253906 -1.460938 1.160156 -1.367188 1.09375 -1.253906 C 1.023438 -1.144531 0.992188 -1.015625 0.992188 -0.867188 C 0.992188 -0.667969 1.042969 -0.527344 1.144531 -0.433594 C 1.246094 -0.34375 1.375 -0.296875 1.535156 -0.296875 C 1.699219 -0.296875 1.847656 -0.335938 1.976562 -0.417969 C 2.101562 -0.5 2.207031 -0.59375 2.296875 -0.707031 Z "/>
</g>
<g id="glyph-1-3">
<path d="M 1.941406 0 L 0.261719 0 L 0.261719 -0.234375 C 0.316406 -0.238281 0.371094 -0.242188 0.429688 -0.246094 C 0.484375 -0.25 0.535156 -0.261719 0.578125 -0.273438 C 0.644531 -0.296875 0.691406 -0.332031 0.726562 -0.386719 C 0.757812 -0.4375 0.773438 -0.507812 0.773438 -0.59375 L 0.773438 -2.738281 C 0.773438 -2.8125 0.753906 -2.882812 0.722656 -2.941406 C 0.6875 -3.003906 0.640625 -3.058594 0.578125 -3.101562 C 0.535156 -3.128906 0.46875 -3.152344 0.382812 -3.171875 C 0.300781 -3.191406 0.222656 -3.203125 0.152344 -3.210938 L 0.152344 -3.441406 L 1.378906 -3.519531 L 1.429688 -3.46875 L 1.429688 -0.636719 C 1.429688 -0.550781 1.445312 -0.484375 1.476562 -0.429688 C 1.507812 -0.375 1.558594 -0.335938 1.625 -0.308594 C 1.675781 -0.289062 1.726562 -0.273438 1.773438 -0.257812 C 1.824219 -0.246094 1.878906 -0.238281 1.941406 -0.234375 L 1.941406 0 M 1.5 -4.890625 C 1.5 -4.757812 1.453125 -4.640625 1.367188 -4.539062 C 1.277344 -4.441406 1.167969 -4.390625 1.039062 -4.390625 C 0.921875 -4.390625 0.816406 -4.4375 0.726562 -4.535156 C 0.640625 -4.628906 0.597656 -4.738281 0.597656 -4.859375 C 0.597656 -4.988281 0.640625 -5.101562 0.726562 -5.199219 C 0.816406 -5.292969 0.921875 -5.34375 1.039062 -5.34375 C 1.175781 -5.34375 1.285156 -5.296875 1.371094 -5.207031 C 1.457031 -5.117188 1.5 -5.011719 1.5 -4.890625 Z "/>
</g>
<g id="glyph-1-4">
<path d="M 4.09375 0 L 2.394531 0 L 2.394531 -0.234375 C 2.449219 -0.238281 2.507812 -0.242188 2.574219 -0.246094 C 2.636719 -0.25 2.691406 -0.261719 2.734375 -0.273438 C 2.800781 -0.296875 2.847656 -0.332031 2.878906 -0.386719 C 2.910156 -0.4375 2.925781 -0.507812 2.925781 -0.59375 L 2.925781 -2.378906 C 2.925781 -2.628906 2.867188 -2.816406 2.753906 -2.953125 C 2.636719 -3.085938 2.492188 -3.152344 2.328125 -3.152344 C 2.203125 -3.152344 2.085938 -3.132812 1.984375 -3.09375 C 1.878906 -3.054688 1.789062 -3.007812 1.707031 -2.953125 C 1.628906 -2.898438 1.566406 -2.839844 1.523438 -2.777344 C 1.476562 -2.714844 1.441406 -2.664062 1.421875 -2.628906 L 1.421875 -0.628906 C 1.421875 -0.546875 1.4375 -0.480469 1.46875 -0.429688 C 1.503906 -0.378906 1.554688 -0.339844 1.617188 -0.308594 C 1.667969 -0.285156 1.722656 -0.269531 1.777344 -0.257812 C 1.835938 -0.246094 1.894531 -0.238281 1.957031 -0.234375 L 1.957031 0 L 0.253906 0 L 0.253906 -0.234375 C 0.308594 -0.238281 0.363281 -0.242188 0.421875 -0.246094 C 0.480469 -0.25 0.527344 -0.261719 0.570312 -0.273438 C 0.636719 -0.296875 0.6875 -0.332031 0.71875 -0.386719 C 0.75 -0.4375 0.765625 -0.507812 0.765625 -0.59375 L 0.765625 -2.738281 C 0.765625 -2.816406 0.75 -2.890625 0.714844 -2.957031 C 0.679688 -3.023438 0.632812 -3.078125 0.570312 -3.121094 C 0.527344 -3.148438 0.472656 -3.171875 0.414062 -3.183594 C 0.351562 -3.195312 0.285156 -3.203125 0.214844 -3.210938 L 0.214844 -3.441406 L 1.371094 -3.519531 L 1.421875 -3.46875 L 1.421875 -2.980469 L 1.4375 -2.980469 C 1.496094 -3.035156 1.566406 -3.105469 1.652344 -3.183594 C 1.734375 -3.261719 1.816406 -3.324219 1.890625 -3.375 C 1.976562 -3.429688 2.082031 -3.476562 2.199219 -3.515625 C 2.320312 -3.554688 2.457031 -3.574219 2.605469 -3.574219 C 2.941406 -3.574219 3.1875 -3.46875 3.347656 -3.261719 C 3.507812 -3.050781 3.589844 -2.777344 3.589844 -2.429688 L 3.589844 -0.621094 C 3.589844 -0.539062 3.605469 -0.472656 3.632812 -0.421875 C 3.660156 -0.371094 3.707031 -0.332031 3.777344 -0.304688 C 3.832031 -0.28125 3.882812 -0.261719 3.921875 -0.253906 C 3.964844 -0.246094 4.023438 -0.238281 4.09375 -0.234375 Z "/>
</g>
<g id="glyph-1-5">
</g>
<g id="glyph-1-6">
<path d="M 5.21875 0 L 3.871094 0 C 3.574219 -0.46875 3.304688 -0.871094 3.0625 -1.214844 C 2.824219 -1.554688 2.5625 -1.90625 2.28125 -2.269531 L 1.765625 -2.269531 L 1.765625 -0.679688 C 1.765625 -0.597656 1.78125 -0.527344 1.804688 -0.464844 C 1.832031 -0.402344 1.886719 -0.355469 1.972656 -0.320312 C 2.015625 -0.304688 2.085938 -0.289062 2.195312 -0.273438 C 2.300781 -0.261719 2.390625 -0.253906 2.460938 -0.25 L 2.460938 0 L 0.34375 0 L 0.34375 -0.25 C 0.402344 -0.253906 0.484375 -0.261719 0.589844 -0.273438 C 0.699219 -0.285156 0.773438 -0.300781 0.816406 -0.320312 C 0.886719 -0.351562 0.9375 -0.394531 0.96875 -0.453125 C 1 -0.515625 1.015625 -0.589844 1.015625 -0.679688 L 1.015625 -4.300781 C 1.015625 -4.382812 1.003906 -4.453125 0.980469 -4.519531 C 0.957031 -4.582031 0.902344 -4.628906 0.816406 -4.664062 C 0.757812 -4.683594 0.679688 -4.703125 0.585938 -4.71875 C 0.492188 -4.738281 0.410156 -4.75 0.34375 -4.753906 L 0.34375 -5.003906 L 2.65625 -5.003906 C 2.867188 -5.003906 3.066406 -4.984375 3.25 -4.9375 C 3.4375 -4.894531 3.605469 -4.824219 3.757812 -4.730469 C 3.902344 -4.636719 4.019531 -4.511719 4.105469 -4.359375 C 4.191406 -4.210938 4.234375 -4.027344 4.234375 -3.8125 C 4.234375 -3.621094 4.207031 -3.449219 4.148438 -3.300781 C 4.089844 -3.152344 4 -3.023438 3.886719 -2.917969 C 3.78125 -2.816406 3.652344 -2.726562 3.503906 -2.652344 C 3.355469 -2.578125 3.195312 -2.515625 3.015625 -2.464844 C 3.261719 -2.136719 3.46875 -1.863281 3.628906 -1.640625 C 3.792969 -1.417969 3.996094 -1.144531 4.230469 -0.824219 C 4.335938 -0.683594 4.429688 -0.582031 4.511719 -0.511719 C 4.597656 -0.445312 4.679688 -0.390625 4.761719 -0.347656 C 4.820312 -0.320312 4.898438 -0.296875 4.992188 -0.277344 C 5.082031 -0.261719 5.160156 -0.253906 5.21875 -0.25 L 5.21875 0 M 3.363281 -3.730469 C 3.363281 -4.03125 3.277344 -4.273438 3.101562 -4.449219 C 2.929688 -4.625 2.683594 -4.714844 2.367188 -4.714844 L 1.765625 -4.714844 L 1.765625 -2.570312 L 2.230469 -2.570312 C 2.554688 -2.570312 2.824219 -2.675781 3.039062 -2.882812 C 3.257812 -3.089844 3.363281 -3.371094 3.363281 -3.730469 Z "/>
</g>
<g id="glyph-1-7">
<path d="M 3.980469 -0.0625 L 2.847656 0.015625 L 2.792969 -0.0351562 L 2.792969 -0.476562 L 2.773438 -0.476562 C 2.714844 -0.417969 2.652344 -0.355469 2.582031 -0.289062 C 2.511719 -0.21875 2.429688 -0.160156 2.339844 -0.105469 C 2.234375 -0.0429688 2.132812 0.0078125 2.03125 0.0390625 C 1.933594 0.0703125 1.792969 0.0898438 1.613281 0.0898438 C 1.304688 0.0898438 1.070312 -0.0117188 0.910156 -0.214844 C 0.75 -0.414062 0.671875 -0.707031 0.671875 -1.089844 L 0.671875 -2.75 C 0.671875 -2.835938 0.652344 -2.90625 0.621094 -2.964844 C 0.589844 -3.023438 0.542969 -3.070312 0.480469 -3.113281 C 0.4375 -3.140625 0.386719 -3.164062 0.320312 -3.175781 C 0.257812 -3.1875 0.191406 -3.199219 0.121094 -3.203125 L 0.121094 -3.433594 L 1.28125 -3.519531 L 1.332031 -3.46875 L 1.332031 -1.054688 C 1.332031 -0.804688 1.390625 -0.613281 1.503906 -0.488281 C 1.613281 -0.359375 1.75 -0.296875 1.90625 -0.296875 C 2.039062 -0.296875 2.152344 -0.316406 2.253906 -0.355469 C 2.355469 -0.394531 2.4375 -0.441406 2.507812 -0.496094 C 2.570312 -0.546875 2.625 -0.597656 2.675781 -0.652344 C 2.722656 -0.707031 2.761719 -0.761719 2.785156 -0.808594 L 2.785156 -2.777344 C 2.785156 -2.851562 2.769531 -2.921875 2.738281 -2.980469 C 2.703125 -3.042969 2.65625 -3.09375 2.597656 -3.136719 C 2.558594 -3.164062 2.492188 -3.179688 2.410156 -3.1875 C 2.328125 -3.191406 2.234375 -3.199219 2.128906 -3.203125 L 2.128906 -3.433594 L 3.394531 -3.519531 L 3.449219 -3.46875 L 3.449219 -0.710938 C 3.449219 -0.632812 3.464844 -0.5625 3.5 -0.507812 C 3.53125 -0.453125 3.578125 -0.402344 3.636719 -0.363281 C 3.679688 -0.335938 3.730469 -0.320312 3.789062 -0.3125 C 3.847656 -0.304688 3.910156 -0.296875 3.980469 -0.296875 Z "/>
</g>
<g id="glyph-1-8">
<path d="M 1.882812 0 L 0.1875 0 L 0.1875 -0.234375 C 0.242188 -0.238281 0.296875 -0.242188 0.359375 -0.25 C 0.421875 -0.253906 0.472656 -0.261719 0.511719 -0.273438 C 0.578125 -0.296875 0.625 -0.332031 0.660156 -0.386719 C 0.691406 -0.4375 0.707031 -0.507812 0.707031 -0.59375 L 0.707031 -4.625 C 0.707031 -4.707031 0.691406 -4.789062 0.652344 -4.863281 C 0.617188 -4.933594 0.570312 -4.992188 0.511719 -5.035156 C 0.46875 -5.0625 0.390625 -5.089844 0.277344 -5.113281 C 0.164062 -5.136719 0.0742188 -5.152344 0.0078125 -5.15625 L 0.0078125 -5.382812 L 1.316406 -5.460938 L 1.363281 -5.40625 L 1.363281 -0.636719 C 1.363281 -0.550781 1.378906 -0.484375 1.410156 -0.433594 C 1.441406 -0.378906 1.492188 -0.339844 1.558594 -0.308594 C 1.609375 -0.285156 1.660156 -0.269531 1.710938 -0.257812 C 1.761719 -0.246094 1.820312 -0.238281 1.882812 -0.234375 Z "/>
</g>
<g id="glyph-1-9">
<path d="M 3.34375 -0.816406 C 3.199219 -0.539062 3.003906 -0.320312 2.757812 -0.15625 C 2.511719 0.0078125 2.230469 0.0898438 1.914062 0.0898438 C 1.636719 0.0898438 1.390625 0.0429688 1.179688 -0.0546875 C 0.96875 -0.15625 0.796875 -0.289062 0.660156 -0.457031 C 0.523438 -0.628906 0.421875 -0.824219 0.355469 -1.050781 C 0.289062 -1.277344 0.253906 -1.515625 0.253906 -1.765625 C 0.253906 -1.992188 0.289062 -2.214844 0.363281 -2.433594 C 0.433594 -2.648438 0.539062 -2.84375 0.675781 -3.019531 C 0.8125 -3.1875 0.976562 -3.320312 1.175781 -3.421875 C 1.375 -3.523438 1.597656 -3.574219 1.84375 -3.574219 C 2.097656 -3.574219 2.316406 -3.535156 2.496094 -3.457031 C 2.679688 -3.375 2.824219 -3.265625 2.9375 -3.128906 C 3.046875 -2.996094 3.125 -2.839844 3.179688 -2.664062 C 3.230469 -2.484375 3.257812 -2.289062 3.257812 -2.082031 L 3.257812 -1.847656 L 0.957031 -1.847656 C 0.957031 -1.621094 0.976562 -1.410156 1.019531 -1.226562 C 1.066406 -1.039062 1.132812 -0.875 1.226562 -0.734375 C 1.320312 -0.597656 1.4375 -0.488281 1.585938 -0.410156 C 1.734375 -0.332031 1.910156 -0.292969 2.117188 -0.292969 C 2.324219 -0.292969 2.503906 -0.339844 2.65625 -0.441406 C 2.808594 -0.539062 2.957031 -0.714844 3.097656 -0.96875 L 3.34375 -0.816406 M 2.5625 -2.144531 C 2.5625 -2.277344 2.550781 -2.417969 2.53125 -2.566406 C 2.507812 -2.714844 2.472656 -2.839844 2.421875 -2.941406 C 2.367188 -3.050781 2.292969 -3.136719 2.199219 -3.207031 C 2.105469 -3.273438 1.984375 -3.308594 1.835938 -3.308594 C 1.589844 -3.308594 1.386719 -3.207031 1.222656 -3 C 1.058594 -2.796875 0.96875 -2.511719 0.957031 -2.144531 Z "/>
</g>
</g>
</defs>
<g fill="rgb(100%, 100%, 0%)" fill-opacity="1">
<use xlink:href="#glyph-0-0" x="30" y="27.091797"/>
<use xlink:href="#glyph-0-1" x="37" y="27.091797"/>
<use xlink:href="#glyph-0-2" x="44" y="27.091797"/>
<use xlink:href="#glyph-0-3" x="51" y="27.091797"/>
<use xlink:href="#glyph-0-4" x="58" y="27.091797"/>
</g>
<g fill="rgb(100%, 100%, 0%)" fill-opacity="1">
<use xlink:href="#glyph-1-0" x="62" y="26.623047"/>
<use xlink:href="#glyph-1-1" x="67" y="26.623047"/>
<use xlink:href="#glyph-1-2" x="71" y="26.623047"/>
<use xlink:href="#glyph-1-3" x="75" y="26.623047"/>
<use xlink:href="#glyph-1-4" x="77" y="26.623047"/>
<use xlink:href="#glyph-1-5" x="81" y="26.623047"/>
<use xlink:href="#glyph-1-6" x="83" y="26.623047"/>
<use xlink:href="#glyph-1-7" x="88" y="26.623047"/>
<use xlink:href="#glyph-1-8" x="92" y="26.623047"/>
<use xlink:href="#glyph-1-9" x="94" y="26.623047"/>
</g>
</svg>
