<?xml version="1.0" encoding="UTF-8"?>
<svg xmlns="http://www.w3.org/2000/svg" xmlns:xlink="http://www.w3.org/1999/xlink" width="854" height="480" viewBox="0 0 854 480">
<defs>
<g>
<g id="glyph-0-0">
<path d="M 3.707031 -1.382812 C 3.707031 -0.960938 3.550781 -0.605469 3.234375 -0.320312 C 2.914062 -0.0390625 2.511719 0.105469 2.015625 0.105469 C 1.5 0.105469 1.089844 -0.0585938 0.777344 -0.378906 C 0.464844 -0.703125 0.308594 -1.136719 0.308594 -1.683594 C 0.308594 -2.410156 0.554688 -3.011719 1.042969 -3.488281 C 1.535156 -3.964844 2.203125 -4.25 3.046875 -4.351562 L 3.113281 -4.054688 L 2.796875 -4 C 2.558594 -3.933594 2.355469 -3.84375 2.195312 -3.730469 C 2.03125 -3.617188 1.898438 -3.484375 1.792969 -3.339844 C 1.691406 -3.199219 1.613281 -3.039062 1.554688 -2.859375 C 1.496094 -2.683594 1.453125 -2.507812 1.421875 -2.332031 C 1.597656 -2.488281 1.769531 -2.59375 1.9375 -2.648438 C 2.109375 -2.699219 2.289062 -2.726562 2.484375 -2.726562 C 2.828125 -2.726562 3.117188 -2.601562 3.355469 -2.351562 C 3.589844 -2.101562 3.707031 -1.78125 3.707031 -1.382812 M 2.605469 -1.300781 C 2.605469 -1.613281 2.550781 -1.863281 2.4375 -2.050781 C 2.328125 -2.234375 2.179688 -2.328125 1.996094 -2.328125 C 1.871094 -2.328125 1.765625 -2.304688 1.675781 -2.265625 C 1.585938 -2.222656 1.492188 -2.136719 1.402344 -2.003906 C 1.402344 -1.992188 1.402344 -1.976562 1.402344 -1.949219 C 1.398438 -1.925781 1.398438 -1.894531 1.394531 -1.851562 C 1.394531 -1.808594 1.394531 -1.769531 1.390625 -1.730469 C 1.390625 -1.691406 1.390625 -1.660156 1.390625 -1.636719 C 1.390625 -1.15625 1.449219 -0.792969 1.566406 -0.539062 C 1.679688 -0.285156 1.832031 -0.15625 2.015625 -0.15625 C 2.191406 -0.15625 2.332031 -0.257812 2.441406 -0.457031 C 2.550781 -0.65625 2.605469 -0.9375 2.605469 -1.300781 Z "/>
</g>
<g id="glyph-0-1">
<path d="M 1.59375 -0.496094 C 1.59375 -0.339844 1.535156 -0.203125 1.417969 -0.0859375 C 1.300781 0.0273438 1.164062 0.0859375 1.003906 0.0859375 C 0.84375 0.0859375 0.707031 0.03125 0.589844 -0.0859375 C 0.472656 -0.199219 0.414062 -0.335938 0.414062 -0.496094 C 0.414062 -0.65625 0.472656 -0.792969 0.589844 -0.910156 C 0.707031 -1.023438 0.84375 -1.082031 1.003906 -1.082031 C 1.164062 -1.082031 1.300781 -1.023438 1.417969 -0.90625 C 1.535156 -0.789062 1.59375 -0.652344 1.59375 -0.496094 Z "/>
</g>
<g id="glyph-0-2">
</g>
<g id="glyph-1-0">
<path d="M 3.316406 -2.171875 L 3.316406 -1.648438 L 4.367188 -1.648438 L 4.367188 -2.171875 L 3.316406 -2.171875 M 1.335938 -1.097656 C 1.351562 -1.527344 1.359375 -1.917969 1.359375 -2.265625 C 1.359375 -2.613281 1.351562 -2.996094 1.335938 -3.414062 L 1.789062 -3.199219 L 2.863281 -3.199219 L 2.863281 -3.628906 L 1.410156 -3.628906 C 1.207031 -3.628906 1.007812 -3.605469 0.8125 -3.554688 L 0.550781 -3.890625 L 2.863281 -3.890625 L 2.863281 -4.34375 C 2.085938 -4.3125 1.488281 -4.289062 1.074219 -4.273438 L 1.074219 -4.484375 C 1.890625 -4.53125 2.613281 -4.609375 3.246094 -4.710938 C 3.878906 -4.8125 4.332031 -4.9375 4.605469 -5.085938 L 5.011719 -4.511719 C 4.773438 -4.527344 4.554688 -4.527344 4.359375 -4.511719 C 4.140625 -4.480469 3.792969 -4.441406 3.316406 -4.398438 L 3.316406 -3.890625 L 4.785156 -3.890625 L 5.183594 -4.25 L 5.703125 -3.628906 L 3.316406 -3.628906 L 3.316406 -3.199219 L 4.371094 -3.199219 L 4.566406 -3.460938 L 5.011719 -3.09375 L 4.820312 -2.902344 C 4.820312 -2.238281 4.828125 -1.703125 4.84375 -1.292969 L 4.367188 -1.097656 L 4.367188 -1.382812 L 3.316406 -1.382812 L 3.316406 -0.859375 L 4.496094 -0.859375 L 4.847656 -1.195312 L 5.347656 -0.597656 L 3.316406 -0.597656 L 3.316406 0 L 5 0 L 5.421875 -0.40625 L 5.96875 0.261719 L 1.121094 0.261719 C 0.921875 0.261719 0.722656 0.285156 0.527344 0.335938 L 0.261719 0 L 2.863281 0 L 2.863281 -0.597656 L 1.71875 -0.597656 C 1.519531 -0.597656 1.320312 -0.574219 1.125 -0.523438 L 0.859375 -0.859375 L 2.863281 -0.859375 L 2.863281 -1.382812 L 1.839844 -1.382812 L 1.839844 -1.265625 L 1.335938 -1.097656 M 1.839844 -2.9375 L 1.839844 -2.433594 L 2.863281 -2.433594 L 2.863281 -2.9375 L 1.839844 -2.9375 M 1.839844 -2.171875 L 1.839844 -1.648438 L 2.863281 -1.648438 L 2.863281 -2.171875 L 1.839844 -2.171875 M 3.316406 -2.9375 L 3.316406 -2.433594 L 4.367188 -2.433594 L 4.367188 -2.9375 Z "/>
</g>
<g id="glyph-1-1">
<path d="M 2.195312 -3.507812 L 2.195312 -3.054688 L 4.34375 -3.054688 L 4.34375 -3.507812 L 2.195312 -3.507812 M 2.195312 -2.792969 L 2.195312 -2.316406 L 4.34375 -2.316406 L 4.34375 -2.792969 L 2.195312 -2.792969 M 2.484375 -1.457031 C 2.742188 -1.171875 3.015625 -0.933594 3.292969 -0.738281 C 3.558594 -0.917969 3.859375 -1.15625 4.199219 -1.457031 L 2.484375 -1.457031 M 1.992188 -5.132812 L 2.578125 -4.703125 L 2.308594 -4.570312 L 2.148438 -4.441406 L 4.785156 -4.441406 L 5.15625 -4.796875 L 5.703125 -4.175781 L 2.035156 -4.175781 C 1.566406 -3.644531 1.066406 -3.230469 0.535156 -2.9375 L 0.40625 -3.074219 C 0.859375 -3.445312 1.203125 -3.800781 1.4375 -4.148438 C 1.675781 -4.492188 1.859375 -4.820312 1.992188 -5.132812 M 2.792969 -1.871094 L 2.574219 -1.730469 L 2.507812 -1.71875 L 4.257812 -1.71875 L 4.511719 -1.957031 L 4.964844 -1.472656 L 4.695312 -1.347656 C 4.332031 -0.984375 3.976562 -0.695312 3.628906 -0.472656 C 4.230469 -0.140625 5.011719 0.0234375 5.96875 0.0234375 L 5.96875 0.234375 C 5.746094 0.25 5.59375 0.355469 5.511719 0.550781 C 4.652344 0.453125 3.917969 0.191406 3.3125 -0.238281 C 2.488281 0.238281 1.527344 0.515625 0.429688 0.597656 L 0.429688 0.394531 C 1.566406 0.167969 2.417969 -0.132812 2.984375 -0.5 C 2.707031 -0.773438 2.476562 -1.074219 2.285156 -1.410156 C 1.96875 -0.972656 1.496094 -0.582031 0.867188 -0.238281 L 0.8125 -0.390625 C 1.484375 -0.941406 1.945312 -1.492188 2.195312 -2.054688 L 2.195312 -2.007812 L 1.671875 -1.789062 C 1.6875 -2.1875 1.695312 -2.558594 1.695312 -2.898438 C 1.695312 -3.238281 1.6875 -3.601562 1.671875 -3.984375 L 2.144531 -3.769531 L 4.328125 -3.769531 L 4.574219 -4.035156 L 5.058594 -3.613281 L 4.84375 -3.445312 C 4.84375 -3.28125 4.84375 -3.066406 4.84375 -2.800781 C 4.84375 -2.535156 4.855469 -2.292969 4.871094 -2.078125 L 4.34375 -1.910156 L 4.34375 -2.054688 L 2.363281 -2.054688 Z "/>
</g>
<g id="glyph-1-2">
<path d="M 4.019531 -2.316406 L 3.9375 -2.023438 C 4.605469 -1.714844 5.039062 -1.480469 5.238281 -1.3125 C 5.4375 -1.148438 5.539062 -0.988281 5.539062 -0.835938 C 5.539062 -0.761719 5.519531 -0.679688 5.476562 -0.589844 C 5.4375 -0.5 5.386719 -0.453125 5.324219 -0.453125 C 5.246094 -0.453125 5.160156 -0.539062 5.070312 -0.703125 C 4.933594 -0.917969 4.746094 -1.125 4.507812 -1.320312 C 4.273438 -1.515625 4.0625 -1.699219 3.871094 -1.863281 C 3.601562 -1.203125 3.015625 -0.71875 2.121094 -0.40625 L 2.027344 -0.558594 C 2.921875 -1.046875 3.429688 -1.628906 3.554688 -2.316406 L 2.625 -2.316406 C 2.488281 -2.316406 2.324219 -2.292969 2.125 -2.242188 L 1.863281 -2.578125 L 3.585938 -2.578125 C 3.628906 -2.914062 3.652344 -3.25 3.652344 -3.582031 L 2.882812 -3.582031 C 2.703125 -3.21875 2.449219 -2.890625 2.121094 -2.601562 L 2.003906 -2.703125 C 2.195312 -3.039062 2.34375 -3.351562 2.445312 -3.648438 C 2.550781 -3.941406 2.628906 -4.277344 2.683594 -4.65625 L 3.269531 -4.34375 C 3.167969 -4.234375 3.0625 -4.066406 2.960938 -3.84375 L 3.652344 -3.84375 C 3.652344 -4.128906 3.644531 -4.53125 3.628906 -5.058594 L 4.320312 -4.753906 L 4.128906 -4.550781 L 4.128906 -3.84375 L 4.710938 -3.84375 L 5.039062 -4.152344 L 5.515625 -3.582031 L 4.125 -3.582031 C 4.113281 -3.15625 4.089844 -2.824219 4.058594 -2.578125 L 5.09375 -2.578125 L 5.417969 -2.886719 L 5.894531 -2.316406 L 4.019531 -2.316406 M 1.648438 -0.917969 C 1.777344 -0.769531 1.976562 -0.613281 2.238281 -0.441406 C 2.5 -0.273438 2.964844 -0.175781 3.636719 -0.152344 C 4.3125 -0.128906 5.09375 -0.183594 5.992188 -0.308594 L 5.992188 -0.0898438 C 5.699219 0.00390625 5.546875 0.140625 5.53125 0.308594 C 4.738281 0.324219 4.097656 0.320312 3.617188 0.296875 C 3.136719 0.273438 2.761719 0.203125 2.488281 0.0898438 C 2.214844 -0.0273438 1.980469 -0.191406 1.785156 -0.402344 C 1.589844 -0.601562 1.472656 -0.707031 1.433594 -0.71875 C 1.398438 -0.734375 1.292969 -0.648438 1.113281 -0.464844 C 0.933594 -0.285156 0.773438 -0.0898438 0.632812 0.121094 L 0.238281 -0.285156 C 0.554688 -0.515625 0.875 -0.730469 1.195312 -0.925781 L 1.195312 -2.792969 L 0.953125 -2.792969 C 0.832031 -2.792969 0.675781 -2.769531 0.480469 -2.722656 L 0.214844 -3.054688 L 1.109375 -3.054688 L 1.429688 -3.367188 L 1.910156 -2.890625 L 1.648438 -2.726562 L 1.648438 -0.917969 M 0.90625 -4.847656 L 0.957031 -5.011719 C 1.257812 -4.859375 1.484375 -4.726562 1.632812 -4.609375 C 1.785156 -4.492188 1.863281 -4.363281 1.863281 -4.226562 C 1.863281 -4.09375 1.828125 -3.996094 1.753906 -3.933594 C 1.683594 -3.875 1.632812 -3.84375 1.597656 -3.84375 C 1.5 -3.84375 1.417969 -3.941406 1.34375 -4.140625 C 1.265625 -4.378906 1.121094 -4.613281 0.90625 -4.847656 Z "/>
</g>
<g id="glyph-1-3">
<path d="M 5.320312 -0.0703125 L 5.621094 -1.097656 L 5.847656 -1.097656 C 5.785156 -0.523438 5.765625 -0.160156 5.789062 0 C 5.8125 0.15625 5.847656 0.292969 5.890625 0.414062 C 5.925781 0.550781 5.878906 0.621094 5.753906 0.621094 C 5.714844 0.621094 5.613281 0.601562 5.457031 0.558594 C 5.296875 0.515625 5.054688 0.375 4.730469 0.128906 C 4.402344 -0.117188 4.136719 -0.441406 3.921875 -0.847656 C 3.710938 -1.253906 3.550781 -1.917969 3.445312 -2.839844 L 2.542969 -2.792969 L 2.300781 -2.722656 L 2.003906 -3.023438 L 3.414062 -3.097656 C 3.382812 -3.464844 3.359375 -3.78125 3.339844 -4.054688 C 3.324219 -4.324219 3.308594 -4.636719 3.292969 -4.988281 L 4.011719 -4.632812 L 3.820312 -4.429688 C 3.835938 -3.835938 3.855469 -3.410156 3.886719 -3.152344 L 4.949219 -3.195312 L 5.292969 -3.53125 L 5.847656 -2.992188 L 3.914062 -2.867188 C 4.007812 -1.980469 4.195312 -1.328125 4.480469 -0.914062 C 4.761719 -0.5 5.042969 -0.21875 5.320312 -0.0703125 M 4.273438 -4.53125 L 4.3125 -4.726562 C 4.992188 -4.492188 5.363281 -4.316406 5.421875 -4.195312 C 5.484375 -4.074219 5.515625 -3.988281 5.515625 -3.9375 C 5.515625 -3.859375 5.484375 -3.777344 5.425781 -3.6875 C 5.367188 -3.601562 5.308594 -3.554688 5.25 -3.554688 C 5.15625 -3.554688 5.070312 -3.640625 4.996094 -3.808594 C 4.875 -4.003906 4.632812 -4.246094 4.273438 -4.53125 M 1.863281 -3 L 1.863281 -0.453125 C 1.863281 -0.1875 1.871094 0.109375 1.886719 0.429688 L 1.359375 0.621094 C 1.375 0.175781 1.382812 -0.175781 1.382812 -0.429688 L 1.382812 -2.984375 C 1.085938 -2.394531 0.742188 -1.933594 0.355469 -1.597656 L 0.214844 -1.730469 C 0.421875 -2.015625 0.617188 -2.316406 0.800781 -2.625 C 0.984375 -2.9375 1.167969 -3.296875 1.351562 -3.699219 C 1.535156 -4.105469 1.703125 -4.589844 1.863281 -5.15625 L 2.507812 -4.734375 C 2.367188 -4.644531 2.226562 -4.460938 2.085938 -4.179688 C 1.945312 -3.878906 1.8125 -3.628906 1.695312 -3.421875 L 2.027344 -3.199219 Z "/>
</g>
</g>
</defs>
<g fill="rgb(100%, 100%, 0%)" fill-opacity="1">
<use xlink:href="#glyph-0-0" x="30" y="25.603516"/>
<use xlink:href="#glyph-0-1" x="34" y="25.603516"/>
<use xlink:href="#glyph-0-2" x="36" y="25.603516"/>
</g>
<g fill="rgb(100%, 100%, 0%)" fill-opacity="1">
<use xlink:href="#glyph-1-0" x="38" y="26"/>
<use xlink:href="#glyph-1-1" x="44" y="26"/>
<use xlink:href="#glyph-1-2" x="50" y="26"/>
<use xlink:href="#glyph-1-3" x="56" y="26"/>
</g>
</svg>
